<svg xmlns="http://www.w3.org/2000/svg">
    <g id="filters">
        <path fill="currentColor"
              d="M20.2561 11.2497L26.85 11.2497C27.1882 11.2497 27.5125 11.118 27.7516 10.8836C27.9907 10.6492 28.125 10.3312 28.125 9.99972C28.125 9.6682 27.9907 9.35025 27.7516 9.11583C27.5125 8.8814 27.1882 8.74971 26.85 8.74971L20.2561 8.7497C19.9924 8.01865 19.504 7.38571 18.8582 6.93805C18.2124 6.49038 17.4409 6.25 16.65 6.25C15.8591 6.25 15.0876 6.49038 14.4418 6.93805C13.796 7.38571 13.3076 8.01865 13.0439 8.7497L8.15 8.7497C7.81185 8.7497 7.48755 8.8814 7.24844 9.11583C7.00933 9.35025 6.875 9.6682 6.875 9.99972C6.875 10.3312 7.00933 10.6492 7.24844 10.8836C7.48755 11.118 7.81185 11.2497 8.15 11.2497L13.0439 11.2497C13.3076 11.9808 13.796 12.6137 14.4418 13.0614C15.0876 13.5091 15.8591 13.7494 16.65 13.7494C17.4409 13.7494 18.2124 13.5091 18.8582 13.0614C19.504 12.6137 19.9924 11.9808 20.2561 11.2497ZM15.375 9.99972C15.375 9.75249 15.4498 9.51081 15.5899 9.30525C15.73 9.09969 15.9291 8.93947 16.1621 8.84486C16.3951 8.75025 16.6514 8.72549 16.8987 8.77372C17.1461 8.82196 17.3733 8.94101 17.5516 9.11583C17.7299 9.29064 17.8513 9.51338 17.9005 9.75586C17.9497 9.99834 17.9244 10.2497 17.8279 10.4781C17.7314 10.7065 17.568 10.9017 17.3584 11.0391C17.1487 11.1764 16.9022 11.2497 16.65 11.2497C16.3118 11.2497 15.9875 11.118 15.7484 10.8836C15.5093 10.6492 15.375 10.3312 15.375 9.99972ZM21.75 21.2499C22.5407 21.2488 23.3117 21.008 23.9573 20.5604C24.6029 20.1128 25.0915 19.4804 25.3561 18.7499L26.85 18.7499C27.1882 18.7499 27.5125 18.6182 27.7516 18.3837C27.9907 18.1493 28.125 17.8314 28.125 17.4998C28.125 17.1683 27.9907 16.8504 27.7516 16.6159C27.5125 16.3815 27.1882 16.2498 26.85 16.2498L25.3561 16.2498C25.0924 15.5188 24.604 14.8858 23.9582 14.4382C23.3124 13.9905 22.5409 13.7501 21.75 13.7501C20.9591 13.7501 20.1876 13.9905 19.5418 14.4382C18.896 14.8858 18.4076 15.5188 18.1439 16.2498L8.15 16.2498C7.81185 16.2498 7.48755 16.3815 7.24844 16.6159C7.00933 16.8504 6.875 17.1683 6.875 17.4998C6.875 17.8314 7.00933 18.1493 7.24844 18.3837C7.48755 18.6182 7.81185 18.7499 8.15 18.7499L18.1439 18.7499C18.4085 19.4804 18.8971 20.1128 19.5427 20.5604C20.1883 21.008 20.9593 21.2488 21.75 21.2499ZM20.475 17.4998C20.475 17.2526 20.5498 17.0109 20.6899 16.8054C20.83 16.5998 21.0291 16.4396 21.2621 16.345C21.4951 16.2504 21.7514 16.2256 21.9987 16.2738C22.2461 16.3221 22.4732 16.4411 22.6516 16.6159C22.8299 16.7908 22.9513 17.0135 23.0005 17.256C23.0497 17.4984 23.0244 17.7498 22.9279 17.9782C22.8314 18.2066 22.668 18.4018 22.4584 18.5392C22.2487 18.6765 22.0022 18.7499 21.75 18.7499C21.4118 18.7499 21.0875 18.6182 20.8484 18.3837C20.6093 18.1493 20.475 17.8314 20.475 17.4998ZM13.25 28.75C14.0407 28.7489 14.8117 28.5081 15.4573 28.0605C16.1029 27.6129 16.5915 26.9805 16.8561 26.25L26.85 26.25C27.1882 26.25 27.5125 26.1183 27.7516 25.8838C27.9907 25.6494 28.125 25.3315 28.125 24.9999C28.125 24.6684 27.9907 24.3505 27.7516 24.116C27.5125 23.8816 27.1882 23.7499 26.85 23.7499L16.8561 23.7499C16.5924 23.0189 16.104 22.3859 15.4582 21.9383C14.8124 21.4906 14.0409 21.2502 13.25 21.2502C12.4591 21.2502 11.6876 21.4906 11.0418 21.9383C10.396 22.3859 9.90759 23.0189 9.64387 23.7499L8.15 23.7499C7.81185 23.7499 7.48755 23.8816 7.24844 24.116C7.00933 24.3505 6.875 24.6684 6.875 24.9999C6.875 25.3315 7.00933 25.6494 7.24844 25.8838C7.48755 26.1183 7.81185 26.25 8.15 26.25L9.64387 26.25C9.90847 26.9805 10.3971 27.6129 11.0427 28.0605C11.6883 28.5081 12.4593 28.7489 13.25 28.75ZM11.975 24.9999C11.975 24.7527 12.0498 24.511 12.1899 24.3055C12.33 24.0999 12.5291 23.9397 12.7621 23.8451C12.9951 23.7505 13.2514 23.7257 13.4987 23.7739C13.7461 23.8222 13.9732 23.9412 14.1516 24.116C14.3299 24.2909 14.4513 24.5136 14.5005 24.7561C14.5497 24.9986 14.5244 25.2499 14.4279 25.4783C14.3314 25.7067 14.168 25.9019 13.9584 26.0393C13.7487 26.1766 13.5022 26.25 13.25 26.25C12.9119 26.25 12.5875 26.1183 12.3484 25.8838C12.1093 25.6494 11.975 25.3315 11.975 24.9999Z"
              fill-opacity="1.000000"/>
    </g>

    <g id="search">
        <path fill="currentColor"
              d="M15.7157 6.25C13.2052 6.25 10.7976 7.24859 9.02243 9.02612C7.24727 10.8036 6.25 13.2145 6.25 15.7283C6.25 18.2421 7.24727 20.6529 9.02243 22.4304C10.7976 24.208 13.2052 25.2066 15.7157 25.2066C17.8192 25.1956 19.8607 24.492 21.5253 23.2043L26.7196 28.4055C26.9413 28.6262 27.2412 28.75 27.5538 28.75C27.8663 28.75 28.1662 28.6262 28.3879 28.4055C28.5024 28.295 28.5935 28.1624 28.6557 28.0159C28.7179 27.8693 28.75 27.7117 28.75 27.5524C28.75 27.3932 28.7179 27.2355 28.6557 27.089C28.5935 26.9424 28.5024 26.8099 28.3879 26.6994L23.1818 21.5338C24.4669 19.871 25.1696 17.8308 25.1814 15.7283C25.1814 13.2145 24.1841 10.8036 22.409 9.02612C20.6338 7.24859 18.2262 6.25 15.7157 6.25ZM15.7157 8.61957C17.5985 8.61957 19.4043 9.36855 20.7357 10.7017C22.067 12.0348 22.815 13.8429 22.815 15.7283C22.815 17.6136 22.067 19.4217 20.7357 20.7549C19.4043 22.088 17.5985 22.837 15.7157 22.837C13.8329 22.837 12.0271 22.088 10.6958 20.7549C9.36438 19.4217 8.61643 17.6136 8.61643 15.7283C8.61643 13.8429 9.36438 12.0348 10.6958 10.7017C12.0271 9.36855 13.8329 8.61957 15.7157 8.61957Z"/>
    </g>

    <g id="avatar">
        <path fill="currentColor"
              d="M8 0.5C6.7568 0.5 5.56451 0.974116 4.68543 1.81803C3.80636 2.66194 3.3125 3.80653 3.3125 5C3.3125 6.19347 3.80636 7.33806 4.68543 8.18197C5.56451 9.02588 6.7568 9.5 8 9.5C9.2432 9.5 10.4355 9.02588 11.3146 8.18197C12.1936 7.33806 12.6875 6.19347 12.6875 5C12.6875 3.80653 12.1936 2.66194 11.3146 1.81803C10.4355 0.974116 9.2432 0.5 8 0.5ZM8 2.3C8.74592 2.3 9.46129 2.58445 9.98874 3.0908C10.5162 3.59714 10.8125 4.28392 10.8125 5C10.8125 5.71608 10.5162 6.40286 9.98874 6.9092C9.46129 7.41555 8.74592 7.7 8 7.7C7.25408 7.7 6.53871 7.41555 6.01126 6.9092C5.48381 6.40286 5.1875 5.71608 5.1875 5C5.1875 4.28392 5.48381 3.59714 6.01126 3.0908C6.53871 2.58445 7.25408 2.3 8 2.3ZM9.875 10.4C11.3668 10.4 12.7976 10.969 13.8525 11.9816C14.9074 12.9943 15.5 14.3678 15.5 15.8V17.6C15.5 17.8387 15.4012 18.0676 15.2254 18.2364C15.0496 18.4052 14.8111 18.5 14.5625 18.5C14.3139 18.5 14.0754 18.4052 13.8996 18.2364C13.7238 18.0676 13.625 17.8387 13.625 17.6V15.8C13.625 14.8452 13.2299 13.9295 12.5267 13.2544C11.8234 12.5793 10.8696 12.2 9.875 12.2H6.125C5.13044 12.2 4.17661 12.5793 3.47335 13.2544C2.77009 13.9295 2.375 14.8452 2.375 15.8V17.6C2.375 17.8387 2.27623 18.0676 2.10041 18.2364C1.9246 18.4052 1.68614 18.5 1.4375 18.5C1.18886 18.5 0.950402 18.4052 0.774587 18.2364C0.598771 18.0676 0.5 17.8387 0.5 17.6V15.8C0.5 14.3678 1.09264 12.9943 2.14753 11.9816C3.20242 10.969 4.63316 10.4 6.125 10.4H9.875Z"/>
    </g>

    <g id="home">
        <path stroke="currentColor" stroke-width="3" stroke-linecap="round" stroke-linejoin="round"
              d="M15 32.5109V23.544C15 22.0489 16 22.0488 17 22.0488L21 22.0489C22 22.0489 23 22.0489 23 23.5441V32.511C23 34.5037 24 35.5 26 35.5H34C35 35.5 36 34.5037 36 33.5073V18.5625C36 16.5698 34.6 15.175 33 13.5809C30.1667 10.758 23.9996 4.61423 22 2.62118C20.4999 1.12634 17.4999 1.1262 16 2.62118C14.0004 4.61423 7.83333 10.7578 5 13.5807C3.4 15.1748 2 16.5697 2 18.5624V33.5072C2 34.5035 3 35.4999 4 35.4999H12C14 35.4999 15 34.5035 15 32.5109Z"/>
    </g>
    <g id="candle">
        <path fill-rule="evenodd" clip-rule="evenodd"
              d="M9.13933 11.3524C9.01213 11.738 9 12.2862 9 12.9555C9 13.4012 9.10091 13.7829 9.23846 14.0174C9.35614 14.2181 9.47959 14.2932 9.65206 14.2932C10.0429 14.2932 11.2315 14.1819 11.2952 14.1276C11.2989 14.1244 11.3022 14.1215 11.3051 14.1188C11.3194 13.4186 11.5435 12.7618 12.0277 12.3325C12.5107 11.9041 12.7163 12.2033 13.2061 12.3325C14.189 12.5917 14.4347 13.3018 14.4347 14.8089C14.4347 15.0723 14.4134 15.4172 14.3932 15.7431C14.3861 15.8586 14.3791 15.9717 14.3733 16.0779C14.3483 16.5312 14.3357 16.9633 14.3632 17.3386C14.3917 17.7276 15.4555 17.9228 15.4963 17.9969C15.5068 17.9985 15.5221 18 15.5434 18C15.686 18 15.7744 17.9871 15.8247 17.9758C15.8254 17.973 15.8261 17.9701 15.8269 17.9671C15.8609 17.8317 15.8809 17.6786 15.9149 17.4177C15.9258 17.3348 15.938 17.241 15.9526 17.1334C16.0067 16.7331 16.085 16.2341 16.2476 15.6798C16.3832 15.2175 16.6246 14.8501 16.947 14.5912C17.2506 14.3474 17.579 14.2373 17.8517 14.1797C18.1233 14.1223 18.4008 14.1055 18.628 14.0951C18.6873 14.0924 18.7432 14.0901 18.7965 14.0879C18.9679 14.0808 19.1136 14.0747 19.2616 14.0596C19.6384 14.021 19.7679 13.94 19.8205 13.8837C19.8456 13.8568 20 13.6837 20 12.9555C20 12.2863 19.9878 11.738 19.8606 11.3524C19.8069 11.1895 19.7523 11.1235 19.7152 11.0924C19.6834 11.0656 19.5896 11 19.3477 11H9.65206C9.4102 11 9.31647 11.0655 9.28468 11.0923C9.24766 11.1235 9.19306 11.1895 9.13933 11.3524ZM15.4782 17.9926L15.4802 17.9934Z"
              fill="currentColor"/>
        <path d="M14.5946 8C19.5946 8 16.0947 1 14.5946 1C13.0944 1 9.59452 8 14.5946 8Z" fill="currentColor"/>
        <path d="M14.4999 8C19.4999 8 16 1 14.4999 1C12.9997 1 9.49987 8 14.4999 8ZM14.4999 8V10.3208M14.4999 10.3208H18.4999C19.9999 10.3208 20 11.7925 20 12.7736C20 14.2075 19.288 14.4772 18.4999 14.5468M14.4999 10.3208H10.4999C9 10.3208 9 11.7925 9 12.7736C9 13.7547 9.49992 14.7358 10.4999 14.7358M10.4999 14.7358C11.4999 14.7358 12 14.2453 12 13.7547C12 12.283 13.9999 12.7028 13.9999 14.2453C13.9999 15.2264 13.4999 17.6792 14.9999 17.6792C16.4999 17.6792 15.9998 16.6981 16.4999 15.2264C16.7564 14.4717 17.6703 14.6201 18.4999 14.5468M10.4999 14.7358V26.0189C10.4998 26.5094 11 27 11.5 27H17.5C18 27 18.5 26.5094 18.5 26.0189L18.4999 14.5468"
              stroke="currentColor" stroke-width="1.8" stroke-linecap="round" stroke-linejoin="round"/>
    </g>
    <g id="feelings">
        <path d="M5 28.1983L12.2192 24.6066C14.0239 23.7121 16.1897 23.8883 17.6335 24.6066L29.3646 29.0997C29.9662 29.3991 30.989 30.357 30.267 31.7937C29.8581 32.6074 29.4492 33.0525 29.0403 33.2958M17.6335 30.8958C20.6415 31.7937 26.8379 33.5896 27.5599 33.5896C28.0534 33.5896 28.5468 33.5896 29.0403 33.2958M11.3168 37.1813L24.8527 40.7729C25.7551 41.0723 28.1013 41.3117 30.267 39.875C32.4328 38.4383 40.1934 32.093 43.8029 29.0999C44.7053 28.3517 45.4273 27.1245 44.7053 26.4062C43.3091 25.0169 41.9982 24.6103 39.291 26.4062C39.291 26.4062 32.758 30.7 29.0403 33.2958"
              stroke="currentColor" stroke-width="3" stroke-linecap="round" stroke-linejoin="round"/>
        <path fill-rule="evenodd" clip-rule="evenodd"
              d="M23 14.099C23 10.0262 27.5731 7.09169 31.5245 10.4887C31.6841 10.6259 31.8427 10.7735 32 10.9317C32.1572 10.7735 32.3158 10.626 32.4755 10.4888C36.4269 7.09254 41 10.0271 41 14.0999C41 17.9394 38.0289 20.1543 35.5003 22.0392C35.239 22.2341 34.9823 22.4254 34.7342 22.6146C33.8 23.3291 32.9 24 32 24C31.1 24 30.2 23.3282 29.2658 22.6154C29.0159 22.4246 28.7573 22.2317 28.4939 22.0352C25.9672 20.1501 23 17.9363 23 14.099ZM33.2762 20.8224L33.2735 20.8244C32.7858 21.1974 32.4539 21.4423 32.1653 21.6056C32.0951 21.6454 32.0405 21.6725 32.0002 21.6907C31.9598 21.6724 31.9051 21.6452 31.8347 21.6054C31.5453 21.4417 31.213 21.1965 30.7243 20.8236C30.4285 20.5978 30.1391 20.3815 29.8571 20.1706C28.7433 19.3379 27.7425 18.5897 26.9018 17.6732C25.9289 16.6127 25.3564 15.5056 25.3564 14.099C25.3564 12.8338 26.0923 11.8573 26.9607 11.473C27.6805 11.1546 28.8798 11.0824 30.302 12.5134L31.9998 14.2218L33.6978 12.5136C35.1199 11.083 36.3192 11.1551 37.0392 11.4737C37.9077 11.8581 38.6436 12.8347 38.6436 14.0999C38.6436 15.5061 38.0713 16.6132 37.0985 17.6736C36.2564 18.5915 35.253 19.3411 34.1366 20.1751C33.8566 20.3842 33.5696 20.5987 33.2762 20.8224Z"
              fill="currentColor" stroke="currentColor" stroke-width="2.4"/>
    </g>
    <g id="burger">
        <path d="M24.2778 8.89922C24.6019 8.89922 24.9128 8.78337 25.142 8.57715C25.3712 8.37093 25.5 8.09123 25.5 7.7996C25.5 7.50796 25.3712 7.22826 25.142 7.02204C24.9128 6.81583 24.6019 6.69997 24.2778 6.69997L4.72223 6.69922C4.39807 6.69922 4.08719 6.81507 3.85798 7.02129C3.62877 7.22751 3.5 7.5072 3.5 7.79884C3.5 8.09048 3.62877 8.37017 3.85798 8.57639C4.08719 8.78261 4.39807 8.89846 4.72223 8.89846L24.2778 8.89922Z"
              fill="currentColor"/>
        <path d="M24.2778 15.0984C24.6019 15.0984 24.9128 14.9826 25.142 14.7764C25.3712 14.5701 25.5 14.2905 25.5 13.9988C25.5 13.7072 25.3712 13.4275 25.142 13.2213C24.9128 13.015 24.6019 12.8992 24.2778 12.8992L4.72223 12.8984C4.39807 12.8984 4.08719 13.0143 3.85798 13.2205C3.62877 13.4267 3.5 13.7064 3.5 13.9981C3.5 14.2897 3.62877 14.5694 3.85798 14.7756C4.08719 14.9818 4.39807 15.0977 4.72223 15.0977L24.2778 15.0984Z"
              fill="currentColor"/>
        <path d="M24.2778 21.2977C24.6019 21.2977 24.9128 21.1818 25.142 20.9756C25.3712 20.7694 25.5 20.4897 25.5 20.198C25.5 19.9064 25.3712 19.6267 25.142 19.4205C24.9128 19.2143 24.6019 19.0984 24.2778 19.0984L4.72223 19.0977C4.39807 19.0977 4.08719 19.2135 3.85798 19.4197C3.62877 19.6259 3.5 19.9056 3.5 20.1973C3.5 20.4889 3.62877 20.7686 3.85798 20.9748C4.08719 21.181 4.39807 21.2969 4.72223 21.2969L24.2778 21.2977Z"
              fill="currentColor"/>
    </g>

    <g id="like">
        <path d="M20.001 31.5C53.001 13.6484 33.001 -9.02717 20.001 6.89458C7.00104 -9.02717 -12.999 13.6484 20.001 31.5Z"
              stroke="currentColor" stroke-width="3" stroke-linecap="round" stroke-linejoin="round"/>
    </g>

    <g id="plus">
        <path d="M10.4 0.9V8.1H17.6C17.8387 8.1 18.0676 8.19483 18.2364 8.36362C18.4052 8.5324 18.5 8.7613 18.5 9C18.5 9.2387 18.4052 9.4676 18.2364 9.63638C18.0676 9.80517 17.8387 9.9 17.6 9.9H10.4V17.1C10.4 17.3387 10.3052 17.5676 10.1364 17.7364C9.96761 17.9052 9.7387 18 9.5 18C9.2613 18 9.03239 17.9052 8.8636 17.7364C8.69482 17.5676 8.6 17.3387 8.6 17.1V9.9H1.4C1.16131 9.9 0.932386 9.80517 0.763603 9.63638C0.59482 9.4676 0.5 9.2387 0.5 9C0.5 8.7613 0.59482 8.5324 0.763603 8.36362C0.932386 8.19483 1.16131 8.1 1.4 8.1H8.6V0.9C8.6 0.661305 8.69482 0.4324 8.8636 0.263617C9.03239 0.0948342 9.2613 0 9.5 0C9.7387 0 9.96761 0.0948342 10.1364 0.263617C10.3052 0.4324 10.4 0.661305 10.4 0.9Z"
              fill="currentColor"/>
    </g>

    <g id="plaques">
        <path d="M0 4.5C0 3.30653 0.474106 2.16193 1.31802 1.31802C2.16193 0.474106 3.30653 0 4.5 0H11.5C12.6935 0 13.8381 0.474106 14.682 1.31802C15.5259 2.16193 16 3.30653 16 4.5V11.5C16 12.6935 15.5259 13.8381 14.682 14.682C13.8381 15.5259 12.6935 16 11.5 16H4.5C3.30653 16 2.16193 15.5259 1.31802 14.682C0.474106 13.8381 0 12.6935 0 11.5V4.5ZM4.5 3C4.10218 3 3.72064 3.15804 3.43934 3.43934C3.15804 3.72064 3 4.10218 3 4.5V11.5C3 12.328 3.672 13 4.5 13H11.5C11.8978 13 12.2794 12.842 12.5607 12.5607C12.842 12.2794 13 11.8978 13 11.5V4.5C13 4.10218 12.842 3.72064 12.5607 3.43934C12.2794 3.15804 11.8978 3 11.5 3H4.5ZM6 26H10V30H6V26Z"
              fill="currentColor"/>
        <path d="M0 24.5C0 23.3065 0.474106 22.1619 1.31802 21.318C2.16193 20.4741 3.30653 20 4.5 20H11.5C12.6935 20 13.8381 20.4741 14.682 21.318C15.5259 22.1619 16 23.3065 16 24.5V31.5C16 32.6935 15.5259 33.8381 14.682 34.682C13.8381 35.5259 12.6935 36 11.5 36H4.5C3.30653 36 2.16193 35.5259 1.31802 34.682C0.474106 33.8381 0 32.6935 0 31.5V24.5ZM4.5 23C4.10218 23 3.72064 23.158 3.43934 23.4393C3.15804 23.7206 3 24.1022 3 24.5V31.5C3 32.328 3.672 33 4.5 33H11.5C11.8978 33 12.2794 32.842 12.5607 32.5607C12.842 32.2794 13 31.8978 13 31.5V24.5C13 24.1022 12.842 23.7206 12.5607 23.4393C12.2794 23.158 11.8978 23 11.5 23H4.5ZM30 6H26V10H30V6Z"
              fill="currentColor"/>
        <path d="M24.5005 0C23.307 0 22.1624 0.474106 21.3185 1.31802C20.4746 2.16193 20.0005 3.30653 20.0005 4.5V11.5C20.0005 12.6935 20.4746 13.8381 21.3185 14.682C22.1624 15.5259 23.307 16 24.5005 16H31.5005C32.694 16 33.8386 15.5259 34.6825 14.682C35.5264 13.8381 36.0005 12.6935 36.0005 11.5V4.5C36.0005 3.30653 35.5264 2.16193 34.6825 1.31802C33.8386 0.474106 32.694 0 31.5005 0H24.5005ZM23.0005 4.5C23.0005 4.10218 23.1585 3.72064 23.4398 3.43934C23.7211 3.15804 24.1027 3 24.5005 3H31.5005C31.8983 3 32.2798 3.15804 32.5611 3.43934C32.8425 3.72064 33.0005 4.10218 33.0005 4.5V11.5C33.0005 11.8978 32.8425 12.2794 32.5611 12.5607C32.2798 12.842 31.8983 13 31.5005 13H24.5005C24.1027 13 23.7211 12.842 23.4398 12.5607C23.1585 12.2794 23.0005 11.8978 23.0005 11.5V4.5ZM20.0005 20H25.5005V25.5H20.0005V20ZM30.5005 25.5H25.5005V30.5H20.0005V36H25.5005V30.5H30.5005V36H36.0005V30.5H30.5005V25.5ZM30.5005 25.5V20H36.0005V25.5H30.5005Z"
              fill="currentColor"/>
    </g>

    <g id="contactUs">
        <path d="M19.8958 0C8.9075 0 0 8.9075 0 19.8958C0 30.8842 8.9075 39.7917 19.8958 39.7917C30.8842 39.7917 39.7917 30.8842 39.7917 19.8958C39.7917 8.9075 30.8842 0 19.8958 0ZM19.8958 36.4758C10.7392 36.4758 3.31583 29.0525 3.31583 19.8958C3.31583 10.7392 10.7392 3.31583 19.8958 3.31583C29.0525 3.31583 36.4758 10.7392 36.4758 19.8958C36.4758 29.0525 29.0525 36.4758 19.8958 36.4758Z"
              fill="currentColor"/>
        <path d="M20.9129 13.4235C21.3896 13.4235 21.8271 13.2551 22.2212 12.9185C22.6121 12.5818 22.8521 12.1735 22.9379 11.6968C23.0196 11.2168 22.9179 10.8118 22.6212 10.4751C22.3262 10.1351 21.9396 9.9668 21.4612 9.9668C20.9812 9.9668 20.5446 10.1351 20.1537 10.4751C19.7587 10.811 19.5187 11.2168 19.4371 11.6968C19.3779 12.1743 19.4921 12.5818 19.7729 12.9185C20.0546 13.2551 20.4362 13.4235 20.9129 13.4235Z"
              fill="currentColor"/>
        <path d="M24.5807 25.2292C24.5365 25.2917 24.494 25.3459 24.4507 25.4092C24.1906 25.7392 23.2215 26.905 21.964 27.6025C21.9557 27.6059 21.9482 27.6092 21.944 27.6142C21.834 27.6725 21.7215 27.7167 21.6098 27.7684C21.2782 27.8875 20.9673 27.9175 20.8673 27.925C20.5848 27.8884 20.4315 27.6909 20.4315 27.3167C20.4315 27.0075 20.5223 26.3967 20.7057 25.4792L20.9165 24.5534L21.779 20.4134C21.919 19.7084 21.994 19.3167 22.0107 19.2392L22.199 18.2709C22.3098 17.6717 22.3665 17.2759 22.3665 17.0825C22.3665 16.7125 22.2748 16.4317 22.1273 16.2034C22.114 16.17 22.0965 16.1367 22.0723 16.1017C22.0507 16.075 22.0273 16.0517 22.004 16.0275C21.9782 15.9992 21.9657 15.975 21.9307 15.9459C21.5632 15.6459 21.2198 15.5592 20.9832 15.54L20.9873 15.5334C20.9873 15.5334 19.4315 15.4159 17.1265 16.935C17.0932 16.9567 17.0732 16.9725 17.0423 16.9934C16.4182 17.3884 15.919 17.7842 15.5732 18.1034C15.3082 18.33 15.104 18.5409 14.9523 18.7384L14.9457 18.7475L14.9465 18.7467C14.7498 19.0059 14.6465 19.2409 14.6465 19.4492C14.6465 19.6134 14.7798 19.7775 15.0432 19.9417C15.0432 19.9417 16.0332 18.6634 17.6973 17.8317C17.8223 17.7775 18.1423 17.645 18.424 17.5717C18.5548 17.5417 18.8032 17.5184 18.9615 17.6492C19.0748 17.7675 19.1498 17.9317 19.1498 18.1875C19.1498 18.42 19.1148 18.7025 19.044 19.04L18.8756 19.8375L18.6665 20.8342L17.8448 24.7742C17.4248 26.8092 17.214 28.0267 17.214 28.4234C17.214 29.3592 17.7265 29.8275 18.7498 29.8275C19.214 29.8275 19.6907 29.7434 20.1798 29.5934C20.1832 29.5934 20.1848 29.595 20.1882 29.5967C20.2215 29.585 20.2523 29.5725 20.2848 29.5609C20.3657 29.535 20.4473 29.5042 20.5282 29.4734C22.8373 28.6142 24.3573 26.8834 24.8165 26.3034C24.8573 26.2542 24.8923 26.2084 24.9248 26.1642C24.9507 26.1284 24.9673 26.1042 24.9673 26.1042H24.9657C25.0823 25.9325 25.1465 25.79 25.1465 25.6834C25.1448 25.5342 24.9523 25.385 24.5807 25.2292Z"
              fill="currentColor"/>
    </g>

    <g id="arrow_back">
        <path id="Vector"
              d="M13.83 19C13.6806 19.0005 13.533 18.9675 13.398 18.9035C13.263 18.8395 13.1441 18.746 13.05 18.63L8.22 12.63C8.07291 12.4511 7.99251 12.2266 7.99251 11.995C7.99251 11.7634 8.07291 11.5389 8.22 11.36L13.22 5.36C13.3897 5.15578 13.6336 5.02736 13.8981 5.00298C14.1625 4.97861 14.4258 5.06026 14.63 5.23C14.8342 5.39973 14.9626 5.64365 14.987 5.90808C15.0114 6.1725 14.9297 6.43579 14.76 6.64L10.29 12L14.61 17.36C14.7323 17.5068 14.81 17.6855 14.8338 17.8751C14.8577 18.0646 14.8268 18.257 14.7447 18.4296C14.6627 18.6021 14.5329 18.7475 14.3708 18.8486C14.2087 18.9497 14.021 19.0022 13.83 19Z"
              fill="currentColor" fill-opacity="1.000000" fill-rule="nonzero"/>
    </g>
    <g id="arrow_forward">
        <path id="Vector"
              d="M10 19C9.76635 19.0005 9.53992 18.9191 9.36 18.77C9.25875 18.6861 9.17505 18.5829 9.11369 18.4666C9.05234 18.3503 9.01455 18.2229 9.00247 18.092C8.99039 17.961 9.00428 17.8289 9.04332 17.7033C9.08236 17.5777 9.1458 17.461 9.23 17.36L13.71 12L9.39001 6.63C9.30694 6.52771 9.24491 6.41002 9.20748 6.28368C9.17004 6.15733 9.15795 6.02484 9.17189 5.89381C9.18583 5.76279 9.22552 5.6358 9.2887 5.52017C9.35188 5.40454 9.43728 5.30252 9.54 5.22C9.64347 5.12897 9.76464 5.0603 9.8959 5.01831C10.0272 4.97632 10.1657 4.96191 10.3028 4.976C10.4399 4.99008 10.5726 5.03235 10.6926 5.10016C10.8125 5.16795 10.9172 5.25983 11 5.37L15.83 11.37C15.9771 11.5489 16.0575 11.7734 16.0575 12.005C16.0575 12.2366 15.9771 12.4611 15.83 12.64L10.83 18.64C10.7297 18.761 10.6023 18.8567 10.458 18.9192C10.3138 18.9818 10.1569 19.0095 10 19Z"
              fill="currentColor" fill-opacity="1.000000" fill-rule="nonzero"/>
    </g>
    <g id="eye_outline">
        <path fill="currentColor" id="Vector"
              d="M21.87 11.5C21.23 10.39 17.71 4.81999 11.73 5C6.20001 5.14 3.00001 10 2.13001 11.5C2.04224 11.652 1.99603 11.8245 1.99603 12C1.99603 12.1755 2.04224 12.348 2.13001 12.5C2.76001 13.59 6.13001 19 12.02 19L12.27 19C17.8 18.86 21.01 14 21.87 12.5C21.9578 12.348 22.004 12.1755 22.004 12C22.004 11.8245 21.9578 11.652 21.87 11.5ZM12.22 17C7.91001 17.1 5.10001 13.41 4.22001 12C5.22001 10.39 7.83001 7.09999 11.83 7C16.12 6.89 18.94 10.59 19.83 12C18.8 13.61 16.22 16.9 12.22 17Z"
              fill-opacity="1.000000" fill-rule="nonzero"/>
        <path fill="currentColor" id="Vector"
              d="M12 8.5C11.3078 8.5 10.6311 8.70528 10.0555 9.08986C9.47993 9.47444 9.03133 10.0211 8.76642 10.6606C8.50152 11.3002 8.43221 12.0039 8.56725 12.6828C8.7023 13.3618 9.03564 13.9854 9.52513 14.4749C10.0146 14.9644 10.6383 15.2977 11.3172 15.4328C11.9961 15.5678 12.6999 15.4985 13.3394 15.2336C13.9789 14.9687 14.5256 14.5201 14.9101 13.9445C15.2947 13.3689 15.5 12.6922 15.5 12C15.5 11.0717 15.1313 10.1815 14.4749 9.52513C13.8185 8.86874 12.9283 8.5 12 8.5ZM12 13.5C11.7033 13.5 11.4133 13.412 11.1666 13.2472C10.92 13.0824 10.7277 12.8481 10.6142 12.574C10.5007 12.2999 10.4709 11.9983 10.5288 11.7074C10.5867 11.4164 10.7296 11.1491 10.9393 10.9393C11.1491 10.7296 11.4164 10.5867 11.7074 10.5288C11.9983 10.4709 12.2999 10.5007 12.574 10.6142C12.8481 10.7277 13.0824 10.92 13.2472 11.1666C13.412 11.4133 13.5 11.7033 13.5 12C13.5 12.3978 13.342 12.7794 13.0607 13.0607C12.7794 13.342 12.3978 13.5 12 13.5Z"
              fill-opacity="1.000000" fill-rule="nonzero"/>
    </g>
    <g id="close">
        <path id="Vector"
              d="M13.41 12L17.71 7.71C17.8983 7.5217 18.0041 7.2663 18.0041 7C18.0041 6.7337 17.8983 6.47831 17.71 6.29C17.5217 6.1017 17.2663 5.99591 17 5.99591C16.7337 5.99591 16.4783 6.1017 16.29 6.29L12 10.59L7.71 6.29C7.5217 6.1017 7.2663 5.99591 7 5.99591C6.7337 5.99591 6.4783 6.1017 6.29 6.29C6.1017 6.47831 5.99591 6.7337 5.99591 7C5.99591 7.2663 6.1017 7.5217 6.29 7.71L10.59 12L6.29 16.29C6.19627 16.383 6.12188 16.4936 6.07111 16.6154C6.02034 16.7373 5.9942 16.868 5.9942 17C5.9942 17.132 6.02034 17.2627 6.07111 17.3846C6.12188 17.5064 6.19627 17.617 6.29 17.71C6.38296 17.8037 6.49356 17.8781 6.61543 17.9289C6.73728 17.9797 6.86799 18.0058 7 18.0058C7.13201 18.0058 7.26272 17.9797 7.38457 17.9289C7.50644 17.8781 7.61704 17.8037 7.71 17.71L12 13.41L16.29 17.71C16.383 17.8037 16.4936 17.8781 16.6154 17.9289C16.7373 17.9797 16.868 18.0058 17 18.0058C17.132 18.0058 17.2627 17.9797 17.3846 17.9289C17.5064 17.8781 17.617 17.8037 17.71 17.71C17.8037 17.617 17.8781 17.5064 17.9289 17.3846C17.9797 17.2627 18.0058 17.132 18.0058 17C18.0058 16.868 17.9797 16.7373 17.9289 16.6154C17.8781 16.4936 17.8037 16.383 17.71 16.29L13.41 12Z"
              fill="currentColor" fill-opacity="1.000000" fill-rule="nonzero"/>
    </g>
    <g id="eye_off_outline">
        <path fill="currentColor" id="Vector"
              d="M4.71 3.29001C4.61676 3.19676 4.50607 3.1228 4.38425 3.07234C4.26243 3.02188 4.13186 2.99591 4 2.99591C3.86814 2.99591 3.73758 3.02188 3.61575 3.07234C3.49393 3.1228 3.38324 3.19676 3.29 3.29001C3.1017 3.4783 2.99591 3.7337 2.99591 4C2.99591 4.2663 3.1017 4.5217 3.29 4.71001L8.92 10.34C8.5638 11.0026 8.43059 11.7624 8.54009 12.5067C8.64959 13.2509 8.99599 13.9401 9.52794 14.4721C10.0599 15.004 10.7491 15.3504 11.4934 15.4599C12.2376 15.5694 12.9974 15.4362 13.66 15.08L19.29 20.71C19.383 20.8037 19.4936 20.8781 19.6154 20.9289C19.7373 20.9797 19.868 21.0058 20 21.0058C20.132 21.0058 20.2627 20.9797 20.3846 20.9289C20.5064 20.8781 20.617 20.8037 20.71 20.71C20.8037 20.617 20.8781 20.5064 20.9289 20.3846C20.9797 20.2627 21.0058 20.132 21.0058 20C21.0058 19.868 20.9797 19.7373 20.9289 19.6154C20.8781 19.4936 20.8037 19.383 20.71 19.29L4.71 3.29001ZM12 13.5C11.6022 13.5 11.2206 13.342 10.9393 13.0607C10.658 12.7794 10.5 12.3978 10.5 12L10.5 11.93L12.06 13.49L12 13.5Z"
              fill-opacity="1.000000" fill-rule="nonzero"/>
        <path fill="currentColor" id="Vector"
              d="M12.22 17C7.92001 17.1 5.10001 13.41 4.22001 12C4.84648 11.0007 5.59937 10.0865 6.46001 9.28L5.00001 7.87C3.87133 8.93347 2.90442 10.1564 2.13001 11.5C2.04224 11.652 1.99603 11.8245 1.99603 12C1.99603 12.1755 2.04224 12.348 2.13001 12.5C2.76001 13.59 6.13001 19 12.02 19L12.27 19C13.3776 18.9671 14.4708 18.7404 15.5 18.33L13.92 16.75C13.3644 16.8962 12.7942 16.98 12.22 17Z"
              fill-opacity="1.000000" fill-rule="nonzero"/>
        <path fill="currentColor" id="Vector"
              d="M21.87 11.5C21.23 10.39 17.7 4.81999 11.73 5C10.6225 5.03285 9.52924 5.25961 8.5 5.67L10.08 7.25C10.6356 7.10382 11.2058 7.01997 11.78 7C16.07 6.89 18.89 10.59 19.78 12C19.1381 13.0023 18.3682 13.9167 17.49 14.72L19 16.13C20.1428 15.0693 21.1234 13.8462 21.91 12.5C21.9918 12.3445 22.0311 12.1702 22.0241 11.9946C22.0171 11.8191 21.9639 11.6485 21.87 11.5Z"
              fill-opacity="1.000000" fill-rule="nonzero"/>
    </g>
    <g id="arrow_down">
        <path id="Vector"
              d="M5.51414 9.45842C5.51369 9.22477 5.59506 8.99834 5.74414 8.81842C5.82809 8.71717 5.9312 8.63346 6.04755 8.57211C6.16389 8.51076 6.2912 8.47297 6.42216 8.46089C6.55315 8.44881 6.68523 8.46269 6.81082 8.50174C6.93643 8.54078 7.0531 8.60422 7.15414 8.68842L12.5141 13.1684L17.8841 8.84843C17.9864 8.76536 18.1041 8.70333 18.2305 8.6659C18.3568 8.62846 18.4893 8.61637 18.6203 8.63031C18.7514 8.64425 18.8783 8.68394 18.994 8.74712C19.1096 8.8103 19.2116 8.8957 19.2941 8.99842C19.3852 9.10189 19.4538 9.22306 19.4958 9.35432C19.5378 9.48558 19.5522 9.62411 19.5381 9.7612C19.5241 9.89829 19.4818 10.031 19.414 10.151C19.3462 10.271 19.2543 10.3756 19.1441 10.4584L13.1441 15.2884C12.9652 15.4355 12.7408 15.5159 12.5091 15.5159C12.2775 15.5159 12.0531 15.4355 11.8741 15.2884L5.87415 10.2884C5.75313 10.1881 5.65746 10.0607 5.59491 9.91647C5.53236 9.77225 5.5047 9.61533 5.51414 9.45842Z"
              fill="currentColor" fill-opacity="1.000000" fill-rule="nonzero"/>
    </g>
    <g id="messenger">
        <path d="M14 4.5C11.3478 4.5 8.8043 5.55356 6.92893 7.42892C5.05357 9.30429 4 11.8478 4 14.5C4.02302 15.6739 4.22536 16.8373 4.6 17.95L4.28 19.25C3.44 22.62 5.81 25.06 9.19 24.25L10.57 23.92C11.675 24.2956 12.833 24.4914 14 24.5C16.6522 24.5 19.1957 23.4464 21.0711 21.5711C22.9464 19.6957 24 17.1522 24 14.5C24 11.8478 22.9464 9.30429 21.0711 7.42892C19.1957 5.55356 16.6522 4.5 14 4.5ZM14 6.5C16.1217 6.5 18.1566 7.34285 19.6569 8.84314C21.1571 10.3434 22 12.3783 22 14.5C22 16.6217 21.1571 18.6566 19.6569 20.1569C18.1566 21.6572 16.1217 22.5 14 22.5C12.9725 22.4869 11.9559 22.287 11 21.91C10.8095 21.8404 10.6005 21.8404 10.41 21.91L8.72 22.31C6.81 22.79 5.72 21.71 6.22 19.78L6.6 18.16C6.66788 17.9555 6.66788 17.7345 6.6 17.53C6.2328 16.5723 6.04304 15.5557 6.04 14.53C6.03202 12.41 6.86587 10.3735 8.35838 8.86786C9.85088 7.36223 11.88 6.51059 14 6.5ZM9 14.5C9 14.2348 9.10536 13.9804 9.29289 13.7929C9.48043 13.6054 9.73478 13.5 10 13.5C10.2652 13.5 10.5196 13.6054 10.7071 13.7929C10.8946 13.9804 11 14.2348 11 14.5C11 14.7652 10.8946 15.0196 10.7071 15.2071C10.5196 15.3946 10.2652 15.5 10 15.5C9.73478 15.5 9.48043 15.3946 9.29289 15.2071C9.10536 15.0196 9 14.7652 9 14.5ZM13 14.5C13 14.2348 13.1054 13.9804 13.2929 13.7929C13.4804 13.6054 13.7348 13.5 14 13.5C14.2652 13.5 14.5196 13.6054 14.7071 13.7929C14.8946 13.9804 15 14.2348 15 14.5C15 14.7652 14.8946 15.0196 14.7071 15.2071C14.5196 15.3946 14.2652 15.5 14 15.5C13.7348 15.5 13.4804 15.3946 13.2929 15.2071C13.1054 15.0196 13 14.7652 13 14.5ZM17 14.5C17 14.2348 17.1054 13.9804 17.2929 13.7929C17.4804 13.6054 17.7348 13.5 18 13.5C18.2652 13.5 18.5196 13.6054 18.7071 13.7929C18.8946 13.9804 19 14.2348 19 14.5C19 14.7652 18.8946 15.0196 18.7071 15.2071C18.5196 15.3946 18.2652 15.5 18 15.5C17.7348 15.5 17.4804 15.3946 17.2929 15.2071C17.1054 15.0196 17 14.7652 17 14.5Z"
              fill="currentColor"/>
    </g>
    <g id="correcter">
        <path d="M32.7394 14.0194C32.5737 14.0152 32.4089 14.0439 32.2545 14.104C32.1001 14.164 31.9591 14.2542 31.8399 14.3692L29.3413 16.8673L19.347 26.8595C19.2319 26.9787 19.1418 27.1196 19.0817 27.274C19.0217 27.4284 18.9929 27.5931 18.9972 27.7587V32.7549C18.9972 33.0861 19.1288 33.4038 19.3631 33.638C19.5974 33.8723 19.9151 34.0039 20.2465 34.0039H25.2436C25.4093 34.0081 25.5741 33.9794 25.7285 33.9193C25.8829 33.8593 26.0239 33.7691 26.1431 33.6541L36.1375 23.6619L38.636 21.1638C38.7511 21.0446 38.8412 20.9037 38.9013 20.7494C38.9613 20.595 38.9901 20.4302 38.9858 20.2646C39.0423 19.4284 38.9297 18.5894 38.655 17.7975C38.3803 17.0057 37.949 16.2773 37.3867 15.6557C36.7699 15.0727 36.0375 14.6258 35.2369 14.344C34.4363 14.0621 33.5854 13.9515 32.7394 14.0194ZM33.2141 16.5924C34.0758 16.5497 34.9223 16.8304 35.5878 17.3793C36.1415 18.0587 36.434 18.9138 36.4123 19.7899L35.238 20.964L32.0398 17.7665L33.2141 16.5924ZM30.2408 19.5651L33.439 22.7626L24.6939 31.5058H21.4958V28.3083L30.2408 19.5651ZM23.9943 16.5175C24.3257 16.5175 24.6434 16.6491 24.8777 16.8833C25.112 17.1176 25.2436 17.4353 25.2436 17.7665C25.2436 18.0978 25.112 18.4155 24.8777 18.6497C24.6434 18.8839 24.3257 19.0155 23.9943 19.0155H18.9972C18.3345 19.0155 17.699 19.2788 17.2304 19.7472C16.7618 20.2157 16.4986 20.8511 16.4986 21.5136V34.0039C16.4986 34.6664 16.7618 35.3018 17.2304 35.7702C17.699 36.2387 18.3345 36.5019 18.9972 36.5019H31.4901C32.1528 36.5019 32.7883 36.2387 33.2569 35.7702C33.7254 35.3018 33.9887 34.6664 33.9887 34.0039V29.0078C33.9887 28.6765 34.1203 28.3588 34.3546 28.1246C34.5889 27.8904 34.9066 27.7587 35.238 27.7587C35.5693 27.7587 35.8871 27.8904 36.1213 28.1246C36.3556 28.3588 36.4873 28.6765 36.4873 29.0078V34.0039C36.4873 35.3289 35.9608 36.5997 35.0236 37.5367C34.0865 38.4736 32.8154 39 31.4901 39H18.9972C17.6718 39 16.4008 38.4736 15.4636 37.5367C14.5265 36.5997 14 35.3289 14 34.0039V21.5136C14 20.1886 14.5265 18.9178 15.4636 17.9808C16.4008 17.0439 17.6718 16.5175 18.9972 16.5175H23.9943Z"
              fill="currentColor"/>
    </g>
    <g id="payment">
        <path d="M19.292 9.85602C19.3343 10.0885 19.2834 10.3283 19.1504 10.5237C19.0174 10.719 18.8128 10.8542 18.581 10.9C18.3511 10.94 18.1147 10.8891 17.9217 10.7581C17.7286 10.6271 17.5939 10.4263 17.546 10.198C17.3831 9.37848 16.9402 8.64117 16.2932 8.11244C15.6463 7.5837 14.8355 7.29649 14 7.3C13.1645 7.29649 12.3537 7.5837 11.7068 8.11244C11.0598 8.64117 10.6169 9.37848 10.454 10.198C10.4061 10.4263 10.2714 10.6271 10.0783 10.7581C9.88526 10.8891 9.64887 10.94 9.419 10.9C9.18715 10.8542 8.98263 10.719 8.8496 10.5237C8.71656 10.3283 8.66571 10.0885 8.708 9.85602C8.94965 8.62968 9.60925 7.5251 10.5743 6.73074C11.5393 5.93638 12.7501 5.50142 14 5.5C15.2499 5.50142 16.4607 5.93638 17.4257 6.73074C18.3907 7.5251 19.0503 8.62968 19.292 9.85602ZM16.7 17.2V18.1C16.7 18.8161 16.4155 19.5029 15.9092 20.0092C15.4028 20.5156 14.7161 20.8 14 20.8C13.2839 20.8 12.5972 20.5156 12.0908 20.0092C11.5845 19.5029 11.3 18.8161 11.3 18.1V17.2C11.3 16.4839 11.5845 15.7971 12.0908 15.2908C12.5972 14.7844 13.2839 14.5 14 14.5C14.7161 14.5 15.4028 14.7844 15.9092 15.2908C16.4155 15.7971 16.7 16.4839 16.7 17.2ZM13.1 17.2V18.1C13.1 18.3387 13.1948 18.5676 13.3636 18.7364C13.5324 18.9052 13.7613 19 14 19C14.2387 19 14.4676 18.9052 14.6364 18.7364C14.8052 18.5676 14.9 18.3387 14.9 18.1V17.2C14.9 16.9613 14.8052 16.7324 14.6364 16.5636C14.4676 16.3948 14.2387 16.3 14 16.3C13.7613 16.3 13.5324 16.3948 13.3636 16.5636C13.1948 16.7324 13.1 16.9613 13.1 17.2ZM20.3 11.8C21.0161 11.8 21.7028 12.0844 22.2092 12.5908C22.7155 13.0971 23 13.7839 23 14.5V20.8C23 21.5161 22.7155 22.2029 22.2092 22.7092C21.7028 23.2156 21.0161 23.5 20.3 23.5H7.7C6.98392 23.5 6.29716 23.2156 5.79081 22.7092C5.28446 22.2029 5 21.5161 5 20.8V14.5C5 13.7839 5.28446 13.0971 5.79081 12.5908C6.29716 12.0844 6.98392 11.8 7.7 11.8H20.3ZM6.8 14.5V20.8C6.8 21.0387 6.89482 21.2676 7.0636 21.4364C7.23239 21.6052 7.46131 21.7 7.7 21.7H20.3C20.5387 21.7 20.7676 21.6052 20.9364 21.4364C21.1052 21.2676 21.2 21.0387 21.2 20.8V14.5C21.2 14.2613 21.1052 14.0324 20.9364 13.8636C20.7676 13.6948 20.5387 13.6 20.3 13.6H7.7C7.46131 13.6 7.23239 13.6948 7.0636 13.8636C6.89482 14.0324 6.8 14.2613 6.8 14.5Z"
              fill="#currentColor"/>
    </g>
    <g id="history">
        <path d="M8.6 10C8.6 9.7613 8.69482 9.5324 8.8636 9.36362C9.03239 9.19483 9.2613 9.1 9.5 9.1C9.73869 9.1 9.96761 9.19483 10.1364 9.36362C10.3052 9.5324 10.4 9.7613 10.4 10C10.4 10.2387 10.3052 10.4676 10.1364 10.6364C9.96761 10.8052 9.73869 10.9 9.5 10.9C9.2613 10.9 9.03239 10.8052 8.8636 10.6364C8.69482 10.4676 8.6 10.2387 8.6 10ZM9.5 15.4C9.73869 15.4 9.96761 15.3052 10.1364 15.1364C10.3052 14.9676 10.4 14.7387 10.4 14.5C10.4 14.2613 10.3052 14.0324 10.1364 13.8636C9.96761 13.6948 9.73869 13.6 9.5 13.6C9.2613 13.6 9.03239 13.6948 8.8636 13.8636C8.69482 14.0324 8.6 14.2613 8.6 14.5C8.6 14.7387 8.69482 14.9676 8.8636 15.1364C9.03239 15.3052 9.2613 15.4 9.5 15.4ZM9.5 19.9C9.73869 19.9 9.96761 19.8052 10.1364 19.6364C10.3052 19.4676 10.4 19.2387 10.4 19C10.4 18.7613 10.3052 18.5324 10.1364 18.3636C9.96761 18.1948 9.73869 18.1 9.5 18.1C9.2613 18.1 9.03239 18.1948 8.8636 18.3636C8.69482 18.5324 8.6 18.7613 8.6 19C8.6 19.2387 8.69482 19.4676 8.8636 19.6364C9.03239 19.8052 9.2613 19.9 9.5 19.9ZM12.2 9.1C11.9613 9.1 11.7324 9.19483 11.5636 9.36362C11.3948 9.5324 11.3 9.7613 11.3 10C11.3 10.2387 11.3948 10.4676 11.5636 10.6364C11.7324 10.8052 11.9613 10.9 12.2 10.9H18.5C18.7387 10.9 18.9676 10.8052 19.1364 10.6364C19.3052 10.4676 19.4 10.2387 19.4 10C19.4 9.7613 19.3052 9.5324 19.1364 9.36362C18.9676 9.19483 18.7387 9.1 18.5 9.1H12.2ZM12.2 13.6C11.9613 13.6 11.7324 13.6948 11.5636 13.8636C11.3948 14.0324 11.3 14.2613 11.3 14.5C11.3 14.7387 11.3948 14.9676 11.5636 15.1364C11.7324 15.3052 11.9613 15.4 12.2 15.4H18.5C18.7387 15.4 18.9676 15.3052 19.1364 15.1364C19.3052 14.9676 19.4 14.7387 19.4 14.5C19.4 14.2613 19.3052 14.0324 19.1364 13.8636C18.9676 13.6948 18.7387 13.6 18.5 13.6H12.2ZM12.2 18.1C11.9613 18.1 11.7324 18.1948 11.5636 18.3636C11.3948 18.5324 11.3 18.7613 11.3 19C11.3 19.2387 11.3948 19.4676 11.5636 19.6364C11.7324 19.8052 11.9613 19.9 12.2 19.9H18.5C18.7387 19.9 18.9676 19.8052 19.1364 19.6364C19.3052 19.4676 19.4 19.2387 19.4 19C19.4 18.7613 19.3052 18.5324 19.1364 18.3636C18.9676 18.1948 18.7387 18.1 18.5 18.1H12.2ZM19.4 5.5C20.3548 5.5 21.2705 5.87928 21.9456 6.55441C22.6207 7.22954 23 8.14522 23 9.1V19.9C23 20.8548 22.6207 21.7705 21.9456 22.4456C21.2705 23.1207 20.3548 23.5 19.4 23.5H8.6C7.64522 23.5 6.72955 23.1207 6.05442 22.4456C5.37929 21.7705 5 20.8548 5 19.9V9.1C5 8.14522 5.37929 7.22954 6.05442 6.55441C6.72955 5.87928 7.64522 5.5 8.6 5.5H19.4ZM6.8 9.1V19.9C6.8 20.3774 6.98964 20.8352 7.32721 21.1728C7.66477 21.5104 8.12261 21.7 8.6 21.7H19.4C19.8774 21.7 20.3352 21.5104 20.6728 21.1728C21.0104 20.8352 21.2 20.3774 21.2 19.9V9.1C21.2 8.62261 21.0104 8.1648 20.6728 7.82723C20.3352 7.48967 19.8774 7.3 19.4 7.3H8.6C8.12261 7.3 7.66477 7.48967 7.32721 7.82723C6.98964 8.1648 6.8 8.62261 6.8 9.1Z"
              fill="#currentColor"/>
    </g>
    <g id="notification">
        <path d="M14 5.50649C13.2903 5.47037 12.5809 5.58526 11.9178 5.84376C11.2546 6.10226 10.6523 6.49864 10.1498 7.00729C9.64734 7.51593 9.25578 8.12553 9.0004 8.79681C8.74502 9.46808 8.63151 10.1861 8.66719 10.9045V13.6036C8.66719 13.8915 8.5161 14.0894 8.02725 14.5032L7.67174 14.8451C7.14632 15.2032 6.71805 15.689 6.42612 16.2579C6.1342 16.8269 5.98795 17.4609 6.00078 18.1019C6.00078 19.3165 6.94291 19.7483 8.39167 19.9013C8.74719 19.9013 9.04049 19.9013 9.556 19.9013H18.4441C18.9596 19.9013 19.2529 19.9013 19.6084 19.9013C21.0571 19.7753 21.9993 19.3435 21.9993 18.1019C22.0116 17.456 21.8654 16.817 21.5738 16.2423C21.2822 15.6677 20.8542 15.1752 20.3283 14.8092L19.9461 14.5032C19.4573 14.0984 19.3329 13.8915 19.3329 13.6036V10.9045C19.3685 10.1861 19.255 9.46808 18.9997 8.79681C18.7443 8.12553 18.3527 7.51593 17.8502 7.00729C17.3477 6.49864 16.7455 6.10226 16.0823 5.84376C15.4191 5.58526 14.7098 5.47037 14 5.50649ZM14 7.30584C14.4761 7.26949 14.9543 7.33767 15.4019 7.50567C15.8495 7.67366 16.2561 7.9375 16.5936 8.27921C16.9312 8.62091 17.1919 9.0324 17.3579 9.48551C17.5238 9.93861 17.5912 10.4227 17.5552 10.9045V13.6036C17.563 14.0581 17.6814 14.5036 17.9 14.9006C18.1186 15.2977 18.4307 15.634 18.8085 15.8798L19.2262 16.2216C19.5076 16.4109 19.7417 16.6639 19.9098 16.9606C20.078 17.2573 20.1756 17.5895 20.195 17.931C19.9506 18.0125 19.6965 18.0609 19.4395 18.0749C19.1551 18.0749 18.9151 18.0749 18.4441 18.0749H9.556C9.08493 18.0749 8.84496 18.0749 8.56054 18.0749C8.30354 18.0609 8.0495 18.0125 7.80505 17.931C7.82444 17.5895 7.92206 17.2573 8.09021 16.9606C8.25835 16.6639 8.49241 16.4109 8.77385 16.2216L9.16492 15.8798C9.54767 15.6372 9.86496 15.3022 10.0883 14.905C10.3117 14.5077 10.4342 14.0605 10.4448 13.6036V10.9045C10.4089 10.4227 10.4762 9.93861 10.6422 9.48551C10.8082 9.0324 11.0688 8.62091 11.4064 8.27921C11.744 7.9375 12.1505 7.67366 12.5981 7.50567C13.0458 7.33767 13.524 7.26949 14 7.30584ZM12.6668 21.0799C12.8326 21.2734 13.0373 21.429 13.2672 21.536C13.4971 21.6431 13.747 21.6992 14 21.7006C14.2511 21.7026 14.4997 21.6507 14.7295 21.5483C14.9593 21.446 15.165 21.2955 15.3332 21.1069C15.4889 20.9281 15.7083 20.8192 15.9433 20.804C16.1783 20.7888 16.4096 20.8686 16.5865 21.0259C16.7631 21.1835 16.8707 21.4056 16.8856 21.6434C16.9006 21.8812 16.8218 22.1153 16.6664 22.2944C16.3317 22.675 15.9208 22.9793 15.4612 23.1871C15.0015 23.3949 14.5035 23.5016 14 23.5C13.4933 23.5006 12.9925 23.39 12.5321 23.1756C12.0718 22.9613 11.6629 22.6483 11.3336 22.2584C11.181 22.0799 11.1038 21.8477 11.1188 21.6121C11.1338 21.3764 11.2396 21.1562 11.4136 20.9989C11.5892 20.8413 11.8193 20.7605 12.0535 20.7739C12.1707 20.7814 12.2851 20.8123 12.3904 20.8648C12.4957 20.9173 12.5896 20.9904 12.6668 21.0799Z"
              fill="currentColor"/>
    </g>
    <g id="language">
        <path d="M14 6.5C11.8783 6.5 9.84343 7.34287 8.34314 8.84316C6.84285 10.3435 6 12.3783 6 14.5C6 16.6217 6.84285 18.6565 8.34314 20.1568C9.84343 21.6571 11.8783 22.5 14 22.5C16.1217 22.5 18.1566 21.6571 19.6569 20.1568C21.1572 18.6565 22 16.6217 22 14.5C22 12.3783 21.1572 10.3435 19.6569 8.84316C18.1566 7.34287 16.1217 6.5 14 6.5ZM14 8.1C15.048 8.1 16.256 10.5 16.4 13.7H11.6C11.792 10.5 12.944 8.1 14 8.1ZM11.152 8.77202C10.4439 10.3216 10.0522 11.997 10 13.7H7.6C7.7375 12.6486 8.13406 11.6479 8.75405 10.7877C9.37405 9.92752 10.1981 9.23491 11.152 8.77202ZM16.832 8.77202C17.7805 9.24147 18.5979 9.93879 19.2108 10.8016C19.8237 11.6644 20.213 12.6658 20.344 13.716H17.944C17.9169 12.0066 17.5384 10.3209 16.832 8.76401V8.77202ZM7.63999 15.3H10.04C10.108 17.0034 10.499 18.6784 11.192 20.236C10.2417 19.766 9.42109 19.0704 8.80188 18.2099C8.18267 17.3494 7.78373 16.3503 7.63999 15.3ZM11.6 15.3H16.4C16.224 18.5 15.072 20.9 14 20.9C12.928 20.9 11.776 18.5 11.6 15.3ZM18 15.3H20.4C20.2673 16.3466 19.878 17.3441 19.2667 18.2039C18.6554 19.0637 17.841 19.759 16.896 20.228C17.5924 18.6765 17.9679 17.0003 18 15.3Z"
              fill="currentColor"/>
    </g>
    <g id="info">
        <path d="M14 5.5C11.6131 5.5 9.32387 6.44823 7.63604 8.13606C5.94821 9.82389 5 12.1131 5 14.5C5 16.8869 5.94821 19.1761 7.63604 20.8639C9.32387 22.5518 11.6131 23.5 14 23.5C16.3869 23.5 18.6761 22.5518 20.364 20.8639C22.0518 19.1761 23 16.8869 23 14.5C23 12.1131 22.0518 9.82389 20.364 8.13606C18.6761 6.44823 16.3869 5.5 14 5.5ZM14 7.3C15.9096 7.3 17.7409 8.05856 19.0912 9.40883C20.4414 10.7591 21.2 12.5904 21.2 14.5C21.2 16.4096 20.4414 18.2409 19.0912 19.5912C17.7409 20.9414 15.9096 21.7 14 21.7C12.0904 21.7 10.2591 20.9414 8.90883 19.5912C7.55857 18.2409 6.8 16.4096 6.8 14.5C6.8 12.5904 7.55857 10.7591 8.90883 9.40883C10.2591 8.05856 12.0904 7.3 14 7.3ZM18.248 12.052C18.3351 12.136 18.4044 12.2366 18.4517 12.3479C18.499 12.4593 18.5234 12.579 18.5234 12.7C18.5234 12.821 18.499 12.9407 18.4517 13.0521C18.4044 13.1634 18.3351 13.264 18.248 13.348L13.748 17.848C13.664 17.9351 13.5634 18.0044 13.4521 18.0517C13.3407 18.099 13.221 18.1234 13.1 18.1234C12.979 18.1234 12.8593 18.099 12.7479 18.0517C12.6366 18.0044 12.536 17.9351 12.452 17.848L9.752 15.148C9.66489 15.064 9.59561 14.9634 9.54829 14.8521C9.50097 14.7407 9.47658 14.621 9.47658 14.5C9.47658 14.379 9.50097 14.2593 9.54829 14.1479C9.59561 14.0366 9.66489 13.936 9.752 13.852C9.83595 13.7649 9.93661 13.6956 10.0479 13.6483C10.1593 13.601 10.279 13.5766 10.4 13.5766C10.521 13.5766 10.6407 13.601 10.752 13.6483C10.8634 13.6956 10.964 13.7649 11.048 13.852L13.1 15.904L16.952 12.052C17.0379 11.9691 17.1394 11.9042 17.2507 11.8609C17.3619 11.8177 17.4807 11.7969 17.6 11.8C17.7193 11.7969 17.8381 11.8177 17.9493 11.8609C18.0606 11.9042 18.1621 11.9691 18.248 12.052Z"
              fill="currentColor"/>
    </g>
    <g id="blackList">
        <path d="M11.048 10.252L14 13.204L16.952 10.252C17.0379 10.1691 17.1394 10.1042 17.2507 10.0609C17.3619 10.0177 17.4807 9.99693 17.6 10C17.7193 9.99693 17.8381 10.0177 17.9493 10.0609C18.0606 10.1042 18.1621 10.1691 18.248 10.252C18.3351 10.336 18.4044 10.4366 18.4517 10.5479C18.499 10.6593 18.5234 10.779 18.5234 10.9C18.5234 11.021 18.499 11.1407 18.4517 11.2521C18.4044 11.3634 18.3351 11.464 18.248 11.548L15.296 14.5L18.248 17.452C18.3351 17.536 18.4044 17.6366 18.4517 17.7479C18.499 17.8593 18.5234 17.979 18.5234 18.1C18.5234 18.221 18.499 18.3407 18.4517 18.4521C18.4044 18.5634 18.3351 18.664 18.248 18.748C18.164 18.8351 18.0634 18.9044 17.9521 18.9517C17.8407 18.999 17.721 19.0234 17.6 19.0234C17.479 19.0234 17.3593 18.999 17.2479 18.9517C17.1366 18.9044 17.036 18.8351 16.952 18.748L14 15.796L11.048 18.748C10.964 18.8351 10.8634 18.9044 10.7521 18.9517C10.6407 18.999 10.521 19.0234 10.4 19.0234C10.279 19.0234 10.1593 18.999 10.0479 18.9517C9.93661 18.9044 9.83596 18.8351 9.752 18.748C9.6649 18.664 9.59561 18.5634 9.54829 18.4521C9.50097 18.3407 9.47658 18.221 9.47658 18.1C9.47658 17.979 9.50097 17.8593 9.54829 17.7479C9.59561 17.6366 9.6649 17.536 9.752 17.452L12.704 14.5L9.752 11.548C9.6649 11.464 9.59561 11.3634 9.54829 11.2521C9.50097 11.1407 9.47658 11.021 9.47658 10.9C9.47658 10.779 9.50097 10.6593 9.54829 10.5479C9.59561 10.4366 9.6649 10.336 9.752 10.252C9.8379 10.1691 9.93943 10.1042 10.0507 10.0609C10.1619 10.0177 10.2807 9.99693 10.4 10C10.5193 9.99693 10.6381 10.0177 10.7493 10.0609C10.8606 10.1042 10.9621 10.1691 11.048 10.252ZM19.4 5.5C20.3548 5.5 21.2705 5.87928 21.9456 6.55441C22.6207 7.22954 23 8.14522 23 9.1V19.9C23 20.8548 22.6207 21.7705 21.9456 22.4456C21.2705 23.1207 20.3548 23.5 19.4 23.5H8.6C7.64522 23.5 6.72955 23.1207 6.05442 22.4456C5.37928 21.7705 5 20.8548 5 19.9V9.1C5 8.14522 5.37928 7.22954 6.05442 6.55441C6.72955 5.87928 7.64522 5.5 8.6 5.5H19.4ZM6.8 9.1V19.9C6.8 20.3774 6.98964 20.8352 7.32721 21.1728C7.66477 21.5103 8.12261 21.7 8.6 21.7H19.4C19.8774 21.7 20.3352 21.5103 20.6728 21.1728C21.0104 20.8352 21.2 20.3774 21.2 19.9V9.1C21.2 8.62261 21.0104 8.1648 20.6728 7.82723C20.3352 7.48967 19.8774 7.3 19.4 7.3H8.6C8.12261 7.3 7.66477 7.48967 7.32721 7.82723C6.98964 8.1648 6.8 8.62261 6.8 9.1Z"
              fill="currentColor"/>
    </g>
    <g id="logout">
        <path d="M16.448 11.152L19.148 13.852C19.2309 13.9379 19.2958 14.0394 19.3391 14.1507C19.3824 14.2619 19.4031 14.3807 19.4 14.5C19.4031 14.6193 19.3824 14.7381 19.3391 14.8493C19.2958 14.9606 19.2309 15.0621 19.148 15.148L16.448 17.848C16.364 17.9351 16.2634 18.0044 16.1521 18.0517C16.0407 18.099 15.921 18.1234 15.8 18.1234C15.679 18.1234 15.5593 18.099 15.4479 18.0517C15.3366 18.0044 15.236 17.9351 15.152 17.848C15.0649 17.764 14.9956 17.6634 14.9483 17.5521C14.901 17.4407 14.8766 17.321 14.8766 17.2C14.8766 17.079 14.901 16.9593 14.9483 16.8479C14.9956 16.7366 15.0649 16.636 15.152 16.552L16.304 15.4H5.9C5.66131 15.4 5.4324 15.3052 5.26362 15.1364C5.09483 14.9676 5 14.7387 5 14.5C5 14.2613 5.09483 14.0324 5.26362 13.8636C5.4324 13.6948 5.66131 13.6 5.9 13.6H16.304L15.152 12.448C15.0649 12.364 14.9956 12.2634 14.9483 12.1521C14.901 12.0407 14.8766 11.921 14.8766 11.8C14.8766 11.679 14.901 11.5593 14.9483 11.4479C14.9956 11.3366 15.0649 11.236 15.152 11.152C15.2379 11.0691 15.3394 11.0042 15.4507 10.9609C15.5619 10.9177 15.6807 10.8969 15.8 10.9C15.9193 10.8969 16.0381 10.9177 16.1493 10.9609C16.2606 11.0042 16.3621 11.0691 16.448 11.152ZM8.6 5.5C7.64522 5.5 6.72954 5.87928 6.05441 6.55441C5.37928 7.22954 5 8.14522 5 9.1V10.9C5 11.1387 5.09483 11.3676 5.26362 11.5364C5.4324 11.7052 5.66131 11.8 5.9 11.8C6.13869 11.8 6.3676 11.7052 6.53638 11.5364C6.70517 11.3676 6.8 11.1387 6.8 10.9V9.1C6.8 8.62261 6.98964 8.1648 7.32721 7.82723C7.66477 7.48967 8.12261 7.3 8.6 7.3H19.4C19.8774 7.3 20.3352 7.48967 20.6728 7.82723C21.0104 8.1648 21.2 8.62261 21.2 9.1V19.9C21.2 20.3774 21.0104 20.8352 20.6728 21.1728C20.3352 21.5103 19.8774 21.7 19.4 21.7H8.6C8.12261 21.7 7.66477 21.5103 7.32721 21.1728C6.98964 20.8352 6.8 20.3774 6.8 19.9V18.1C6.8 17.8613 6.70517 17.6324 6.53638 17.4636C6.3676 17.2948 6.13869 17.2 5.9 17.2C5.66131 17.2 5.4324 17.2948 5.26362 17.4636C5.09483 17.6324 5 17.8613 5 18.1V19.9C5 20.8548 5.37928 21.7705 6.05441 22.4456C6.72954 23.1207 7.64522 23.5 8.6 23.5H19.4C20.3548 23.5 21.2705 23.1207 21.9456 22.4456C22.6207 21.7705 23 20.8548 23 19.9V9.1C23 8.14522 22.6207 7.22954 21.9456 6.55441C21.2705 5.87928 20.3548 5.5 19.4 5.5H8.6Z"
              fill="currentColor"/>
    </g>
    <g id="photo">
        <path d="M17.1852 7H15.5272L14.7222 5.83375C14.6511 5.73092 14.5547 5.64665 14.4416 5.58842C14.3285 5.53019 14.2023 5.49982 14.0741 5.5H9.92593C9.79773 5.49982 9.67148 5.53019 9.5584 5.58842C9.44532 5.64665 9.34892 5.73092 9.27778 5.83375L8.47213 7H6.81481C6.3335 7 5.87189 7.18438 5.53155 7.51256C5.1912 7.84075 5 8.28587 5 8.75V15.75C5 16.2141 5.1912 16.6592 5.53155 16.9874C5.87189 17.3156 6.3335 17.5 6.81481 17.5H17.1852C17.4235 17.5 17.6595 17.4547 17.8797 17.3668C18.0999 17.2788 18.2999 17.1499 18.4685 16.9874C18.637 16.8249 18.7707 16.632 18.8619 16.4197C18.9531 16.2074 19 15.9798 19 15.75V8.75C19 8.52019 18.9531 8.29262 18.8619 8.0803C18.7707 7.86799 18.637 7.67507 18.4685 7.51256C18.2999 7.35006 18.0999 7.22116 17.8797 7.13321C17.6595 7.04527 17.4235 7 17.1852 7ZM17.4444 15.75C17.4444 15.8163 17.4171 15.8799 17.3685 15.9268C17.3199 15.9737 17.2539 16 17.1852 16H6.81481C6.74605 16 6.68011 15.9737 6.63149 15.9268C6.58287 15.8799 6.55556 15.8163 6.55556 15.75V8.75C6.55556 8.6837 6.58287 8.62011 6.63149 8.57322C6.68011 8.52634 6.74605 8.5 6.81481 8.5H8.88889C9.01708 8.50018 9.14333 8.46981 9.25641 8.41158C9.36949 8.35336 9.46589 8.26908 9.53704 8.16625L10.342 7H13.6573L14.463 8.16625C14.5341 8.26908 14.6305 8.35336 14.7436 8.41158C14.8567 8.46981 14.9829 8.50018 15.1111 8.5H17.1852C17.2539 8.5 17.3199 8.52634 17.3685 8.57322C17.4171 8.62011 17.4444 8.6837 17.4444 8.75V15.75ZM12 9C11.3847 9 10.7832 9.17595 10.2716 9.50559C9.75994 9.83524 9.36118 10.3038 9.12571 10.852C8.89024 11.4001 8.82863 12.0033 8.94867 12.5853C9.06871 13.1672 9.36502 13.7018 9.80011 14.1213C10.2352 14.5409 10.7896 14.8266 11.3931 14.9424C11.9965 15.0581 12.6221 14.9987 13.1906 14.7716C13.7591 14.5446 14.2449 14.1601 14.5868 13.6667C14.9286 13.1734 15.1111 12.5933 15.1111 12C15.1103 11.2046 14.7822 10.442 14.1989 9.87959C13.6157 9.31716 12.8249 9.00083 12 9ZM12 13.5C11.6923 13.5 11.3916 13.412 11.1358 13.2472C10.88 13.0824 10.6806 12.8481 10.5629 12.574C10.4451 12.2999 10.4143 11.9983 10.4743 11.7074C10.5344 11.4164 10.6825 11.1491 10.9001 10.9393C11.1176 10.7296 11.3948 10.5867 11.6965 10.5288C11.9983 10.4709 12.311 10.5006 12.5953 10.6142C12.8795 10.7277 13.1225 10.92 13.2934 11.1666C13.4643 11.4133 13.5556 11.7033 13.5556 12C13.5556 12.3978 13.3917 12.7794 13.0999 13.0607C12.8082 13.342 12.4126 13.5 12 13.5Z"
              fill="currentColor"/>
    </g>
    <g id="map">
        <path d="M37.5627 17.7025C37.4267 17.5995 37.2683 17.5279 37.0996 17.4932C36.9308 17.4585 36.7561 17.4616 36.5888 17.5022L30.3239 18.8731L23.3198 16.1165C23.0772 15.9987 22.7992 15.9691 22.536 16.0329L15.8632 17.5031C15.6171 17.5622 15.3985 17.6994 15.242 17.8931C15.0856 18.0867 15.0004 18.3256 15 18.5717V34.4283C15 34.5958 15.0394 34.7612 15.1151 34.9117C15.1908 35.0623 15.3008 35.1941 15.4369 35.2972C15.5729 35.4003 15.7314 35.472 15.9002 35.5067C16.069 35.5415 16.2438 35.5385 16.4112 35.4978L22.6761 34.1269L29.6802 36.8835C29.9228 37.0013 30.2008 37.0309 30.464 36.9671L37.1368 35.4969C37.3829 35.4378 37.6015 35.3006 37.758 35.1069C37.9144 34.9132 37.9996 34.6744 38 34.4283V18.5717C38 18.4041 37.9606 18.2387 37.8848 18.0881C37.809 17.9374 37.6989 17.8056 37.5627 17.7025ZM23.9444 18.886L29.0556 20.7237V34.114L23.9444 32.2763V18.886ZM17.2716 19.4373L21.6728 18.5184V32.0971L17.2716 33.016V19.4373ZM35.7284 33.5673L31.3272 34.4862V20.9029L35.7284 19.984V33.5673Z"
              fill="currentColor"/>
        <path d="M37.5627 17.7025C37.4267 17.5995 37.2683 17.5279 37.0996 17.4932C36.9308 17.4585 36.7561 17.4616 36.5888 17.5022L30.3239 18.8731L23.3198 16.1165C23.0772 15.9987 22.7992 15.9691 22.536 16.0329L15.8632 17.5031C15.6171 17.5622 15.3985 17.6994 15.242 17.8931C15.0856 18.0867 15.0004 18.3256 15 18.5717V34.4283C15 34.5958 15.0394 34.7612 15.1151 34.9117C15.1908 35.0623 15.3008 35.1941 15.4369 35.2972C15.5729 35.4003 15.7314 35.472 15.9002 35.5067C16.069 35.5415 16.2438 35.5385 16.4112 35.4978L22.6761 34.1269L29.6802 36.8835C29.9228 37.0013 30.2008 37.0309 30.464 36.9671L37.1368 35.4969C37.3829 35.4378 37.6015 35.3006 37.758 35.1069C37.9144 34.9132 37.9996 34.6744 38 34.4283V18.5717C38 18.4041 37.9606 18.2387 37.8848 18.0881C37.809 17.9374 37.6989 17.8056 37.5627 17.7025ZM23.9444 18.886L29.0556 20.7237V34.114L23.9444 32.2763V18.886ZM17.2716 19.4373L21.6728 18.5184V32.0971L17.2716 33.016V19.4373ZM35.7284 33.5673L31.3272 34.4862V20.9029L35.7284 19.984V33.5673Z"
              fill="currentColor" fill-opacity="0.2"/>
    </g>
    <g id="card">
        <path d="M34.1034 17H15.8966C15.3936 17 14.9112 17.2007 14.5555 17.5579C14.1998 17.9151 14 18.3996 14 18.9048V31.0952C14 31.6004 14.1998 32.0849 14.5555 32.4421C14.9112 32.7993 15.3936 33 15.8966 33H34.1034C34.6064 33 35.0888 32.7993 35.4445 32.4421C35.8002 32.0849 36 31.6004 36 31.0952V18.9048C36 18.3996 35.8002 17.9151 35.4445 17.5579C35.0888 17.2007 34.6064 17 34.1034 17ZM33.7241 19.2857V21.1905H16.2759V19.2857H33.7241ZM16.2759 30.7143V23.4762H33.7241V30.7143H16.2759ZM32.5862 28.4286C32.5862 28.7317 32.4663 29.0224 32.2529 29.2367C32.0395 29.451 31.7501 29.5714 31.4483 29.5714H28.4138C28.112 29.5714 27.8226 29.451 27.6092 29.2367C27.3958 29.0224 27.2759 28.7317 27.2759 28.4286C27.2759 28.1255 27.3958 27.8348 27.6092 27.6205C27.8226 27.4061 28.112 27.2857 28.4138 27.2857H31.4483C31.7501 27.2857 32.0395 27.4061 32.2529 27.6205C32.4663 27.8348 32.5862 28.1255 32.5862 28.4286ZM26.1379 28.4286C26.1379 28.7317 26.018 29.0224 25.8046 29.2367C25.5912 29.451 25.3018 29.5714 25 29.5714H23.8621C23.5603 29.5714 23.2708 29.451 23.0574 29.2367C22.844 29.0224 22.7241 28.7317 22.7241 28.4286C22.7241 28.1255 22.844 27.8348 23.0574 27.6205C23.2708 27.4061 23.5603 27.2857 23.8621 27.2857H25C25.3018 27.2857 25.5912 27.4061 25.8046 27.6205C26.018 27.8348 26.1379 28.1255 26.1379 28.4286Z"
              fill="#6F728E"/>
    </g>
    <g id="checkboxFalse">
        <path d="M0.59769 5C0.59769 2.56867 2.56867 0.59769 5 0.59769H16C18.4313 0.59769 20.4023 2.56867 20.4023 5V16C20.4023 18.4313 18.4313 20.4023 16 20.4023H5C2.56867 20.4023 0.59769 18.4313 0.59769 16V5Z"
              stroke="#A1A3B2" stroke-width="1.19538"/>
    </g>
    <g id="checkboxTrue">
        <path fill-rule="evenodd" clip-rule="evenodd"
              d="M5 0C2.23858 0 0 2.23858 0 5V16C0 18.7614 2.23858 21 5 21H16C18.7614 21 21 18.7614 21 16V5C21 2.23858 18.7614 0 16 0H5ZM10.5583 15.9882C10.3374 16.3389 10.0429 16.5 9.70245 16.5C9.36196 16.5 9.08589 16.3578 8.80061 15.9976L5.24847 11.5616C5.09202 11.3626 5 11.1066 5 10.8697C5 10.3673 5.3773 9.99763 5.82822 9.99763C6.1227 9.99763 6.37117 10.1114 6.61043 10.4242L9.65644 14.3578L15.3804 4.98341C15.5828 4.66114 15.8497 4.5 16.1166 4.5C16.5675 4.5 17 4.8128 17 5.31517C17 5.54265 16.8804 5.79858 16.7423 6.00711L10.5583 15.9882Z"
              fill="#3616B8"/>
    </g>
    <g id="image">
        <path d="M14 0.5C10.287 0.5 6.726 1.97499 4.10049 4.60049C1.47499 7.226 0 10.787 0 14.5V56.5C0 60.213 1.47499 63.774 4.10049 66.3995C6.726 69.025 10.287 70.5 14 70.5H56C59.713 70.5 63.274 69.025 65.8995 66.3995C68.525 63.774 70 60.213 70 56.5V14.5C70 10.787 68.525 7.226 65.8995 4.60049C63.274 1.97499 59.713 0.5 56 0.5H14ZM14 7.5H56C57.8565 7.5 59.637 8.2376 60.9498 9.55035C62.2625 10.8631 63 12.6435 63 14.5V45.09C61.796 43.3743 60.2333 41.9411 58.4202 40.8895C56.6071 39.8379 54.5871 39.1932 52.5 39C47.985 39 43.925 42.2199 40.04 47.4349C39.83 47.6799 39.795 47.8199 39.585 48.0999C38.7917 45.7666 37.8817 43.4332 36.855 41.0999C32.48 31.1249 27.58 25.035 21 25.035C15.295 25.035 10.78 29.8651 7 37.1101V14.5C7 12.6435 7.73749 10.8631 9.05025 9.55035C10.363 8.2376 12.1435 7.5 14 7.5ZM21 32C23.625 32 27.23 36.4099 30.52 43.9349C31.8495 46.9627 33.0178 50.0588 34.02 53.21C34.37 54.33 35.175 57.2 35.21 57.375C35.378 58.0827 35.7624 58.7204 36.3096 59.1996C36.8568 59.6787 37.5397 59.9756 38.2634 60.0487C38.9871 60.1218 39.7155 59.9677 40.3476 59.6077C40.9796 59.2477 41.4838 58.6998 41.79 58.04C41.965 57.655 42.35 56.99 42.875 56.08C43.7688 54.5206 44.7503 53.0131 45.815 51.565C48.475 48.065 50.995 46 52.605 46C54.215 46 56.735 48.03 59.395 51.565C60.6786 53.4045 61.8475 55.3215 62.895 57.305C62.711 58.9814 61.928 60.5349 60.69 61.68C59.4062 62.8469 57.7349 63.4955 56 63.5H14C12.1465 63.4922 10.3717 62.7496 9.06499 61.435C7.83896 60.1637 7.13884 58.4759 7.105 56.71C7.315 55.94 7.80499 54.155 8.08499 53.21C9.08723 50.0588 10.2555 46.9627 11.585 43.9349C14.77 36.4099 18.375 32 21 32ZM45.5 21.5C45.5 20.5717 45.8687 19.6816 46.5251 19.0252C47.1815 18.3688 48.0717 18 49 18C49.9283 18 50.8185 18.3688 51.4749 19.0252C52.1313 19.6816 52.5 20.5717 52.5 21.5C52.5 22.4283 52.1313 23.3184 51.4749 23.9748C50.8185 24.6312 49.9283 25 49 25C48.0717 25 47.1815 24.6312 46.5251 23.9748C45.8687 23.3184 45.5 22.4283 45.5 21.5Z"
              fill="currentColor"/>
    </g>
    <g id="more">
        <path d="M12 14C13.1046 14 14 13.1046 14 12C14 10.8954 13.1046 10 12 10C10.8954 10 10 10.8954 10 12C10 13.1046 10.8954 14 12 14Z"
              fill="currentColor"/>
        <path d="M19 14C20.1046 14 21 13.1046 21 12C21 10.8954 20.1046 10 19 10C17.8954 10 17 10.8954 17 12C17 13.1046 17.8954 14 19 14Z"
              fill="currentColor"/>
        <path d="M5 14C6.10457 14 7 13.1046 7 12C7 10.8954 6.10457 10 5 10C3.89543 10 3 10.8954 3 12C3 13.1046 3.89543 14 5 14Z"
              fill="currentColor"/>
    </g>
    <g id="camera">
        <path d="M29.2484 8.04987C29.0218 7.93096 28.7678 7.87908 28.5144 7.89998C28.261 7.92088 28.0182 8.01375 27.8128 8.16829L24.9508 10.3141V8.36842C24.9508 7.74028 24.709 7.13786 24.2786 6.69369C23.8482 6.24953 23.2644 6 22.6557 6H4.29508C3.68639 6 3.10263 6.24953 2.67221 6.69369C2.2418 7.13786 2 7.74028 2 8.36842V23.6316C2 24.2597 2.2418 24.8621 2.67221 25.3063C3.10263 25.7505 3.68639 26 4.29508 26H22.6557C23.2644 26 23.8482 25.7505 24.2786 25.3063C24.709 24.8621 24.9508 24.2597 24.9508 23.6316V21.6859L27.8128 23.8341C28.0183 23.9884 28.2611 24.081 28.5144 24.1016C28.7677 24.1223 29.0216 24.0702 29.248 23.9512C29.4745 23.8322 29.6645 23.6508 29.7973 23.4272C29.93 23.2036 30.0001 22.9464 30 22.6842V9.31579C30 9.05378 29.9298 8.79688 29.7971 8.57348C29.6645 8.35008 29.4746 8.16886 29.2484 8.04987ZM22.1967 23.1579H4.7541V8.84211H22.1967V23.1579ZM27.2459 19.893L24.9508 18.1712V13.8288L27.2459 12.107V19.893Z"
              fill="currentColor"/>
        <path d="M29.2484 8.04987C29.0218 7.93096 28.7678 7.87908 28.5144 7.89998C28.261 7.92088 28.0182 8.01375 27.8128 8.16829L24.9508 10.3141V8.36842C24.9508 7.74028 24.709 7.13786 24.2786 6.69369C23.8482 6.24953 23.2644 6 22.6557 6H4.29508C3.68639 6 3.10263 6.24953 2.67221 6.69369C2.2418 7.13786 2 7.74028 2 8.36842V23.6316C2 24.2597 2.2418 24.8621 2.67221 25.3063C3.10263 25.7505 3.68639 26 4.29508 26H22.6557C23.2644 26 23.8482 25.7505 24.2786 25.3063C24.709 24.8621 24.9508 24.2597 24.9508 23.6316V21.6859L27.8128 23.8341C28.0183 23.9884 28.2611 24.081 28.5144 24.1016C28.7677 24.1223 29.0216 24.0702 29.248 23.9512C29.4745 23.8322 29.6645 23.6508 29.7973 23.4272C29.93 23.2036 30.0001 22.9464 30 22.6842V9.31579C30 9.05378 29.9298 8.79688 29.7971 8.57348C29.6645 8.35008 29.4746 8.16886 29.2484 8.04987ZM22.1967 23.1579H4.7541V8.84211H22.1967V23.1579ZM27.2459 19.893L24.9508 18.1712V13.8288L27.2459 12.107V19.893Z"
              fill="currentColor" fill-opacity="0.2"/>
    </g>
    <g id="phone">
        <path d="M27.5005 19.8498L21.6141 17.211L21.5916 17.201C21.209 17.036 20.7912 16.9696 20.3763 17.0079C19.9614 17.0461 19.5626 17.1877 19.2166 17.4198C19.1681 17.4522 19.1214 17.4873 19.0766 17.5248L16.2878 19.8998C14.6628 19.0185 12.984 17.3535 12.1014 15.7485L14.484 12.9159C14.5223 12.8702 14.5578 12.8222 14.5902 12.7722C14.8162 12.4273 14.9534 12.032 14.9896 11.6213C15.0258 11.2106 14.9599 10.7974 14.7978 10.4184C14.7939 10.4111 14.7906 10.4036 14.7878 10.3959L12.1502 4.49948C11.9337 4.00638 11.5642 3.59607 11.0964 3.32929C10.6286 3.06252 10.0873 2.95344 9.55264 3.0182C7.73807 3.25657 6.07231 4.14732 4.86647 5.52407C3.66063 6.90083 2.99717 8.66944 3.00001 10.4996C3.00001 20.7011 11.2989 29 21.5004 29C23.3306 29.0028 25.0992 28.3394 26.4759 27.1335C27.8527 25.9277 28.7434 24.2619 28.9818 22.4474C29.0466 21.9127 28.9375 21.3714 28.6707 20.9036C28.4039 20.4358 27.9936 20.0663 27.5005 19.8498ZM21.5004 25.9999C17.391 25.995 13.4513 24.3603 10.5455 21.4545C7.63969 18.5487 6.00503 14.609 6.00007 10.4996C5.99721 9.46395 6.34881 8.4585 6.99644 7.65032C7.64408 6.84214 8.54876 6.2799 9.56015 6.05701L11.9127 11.3071L9.51764 14.1597C9.47893 14.2058 9.44303 14.2542 9.41014 14.3047C9.17407 14.6654 9.03528 15.081 9.00725 15.5112C8.97921 15.9413 9.06288 16.3714 9.25014 16.7597C10.4277 19.1698 12.854 21.5798 15.289 22.7599C15.6799 22.9452 16.1122 23.0259 16.5436 22.9941C16.975 22.9623 17.3908 22.8192 17.7503 22.5786C17.7987 22.546 17.845 22.5105 17.8891 22.4724L20.6929 20.0886L25.943 22.4399C25.7201 23.4512 25.1579 24.3559 24.3497 25.0036C23.5415 25.6512 22.536 26.0028 21.5004 25.9999Z"
              fill="currentColor"/>
        <path d="M27.5005 19.8498L21.6141 17.211L21.5916 17.201C21.209 17.036 20.7912 16.9696 20.3763 17.0079C19.9614 17.0461 19.5626 17.1877 19.2166 17.4198C19.1681 17.4522 19.1214 17.4873 19.0766 17.5248L16.2878 19.8998C14.6628 19.0185 12.984 17.3535 12.1014 15.7485L14.484 12.9159C14.5223 12.8702 14.5578 12.8222 14.5902 12.7722C14.8162 12.4273 14.9534 12.032 14.9896 11.6213C15.0258 11.2106 14.9599 10.7974 14.7978 10.4184C14.7939 10.4111 14.7906 10.4036 14.7878 10.3959L12.1502 4.49948C11.9337 4.00638 11.5642 3.59607 11.0964 3.32929C10.6286 3.06252 10.0873 2.95344 9.55264 3.0182C7.73807 3.25657 6.07231 4.14732 4.86647 5.52407C3.66063 6.90083 2.99717 8.66944 3.00001 10.4996C3.00001 20.7011 11.2989 29 21.5004 29C23.3306 29.0028 25.0992 28.3394 26.4759 27.1335C27.8527 25.9277 28.7434 24.2619 28.9818 22.4474C29.0466 21.9127 28.9375 21.3714 28.6707 20.9036C28.4039 20.4358 27.9936 20.0663 27.5005 19.8498ZM21.5004 25.9999C17.391 25.995 13.4513 24.3603 10.5455 21.4545C7.63969 18.5487 6.00503 14.609 6.00007 10.4996C5.99721 9.46395 6.34881 8.4585 6.99644 7.65032C7.64408 6.84214 8.54876 6.2799 9.56015 6.05701L11.9127 11.3071L9.51764 14.1597C9.47893 14.2058 9.44303 14.2542 9.41014 14.3047C9.17407 14.6654 9.03528 15.081 9.00725 15.5112C8.97921 15.9413 9.06288 16.3714 9.25014 16.7597C10.4277 19.1698 12.854 21.5798 15.289 22.7599C15.6799 22.9452 16.1122 23.0259 16.5436 22.9941C16.975 22.9623 17.3908 22.8192 17.7503 22.5786C17.7987 22.546 17.845 22.5105 17.8891 22.4724L20.6929 20.0886L25.943 22.4399C25.7201 23.4512 25.1579 24.3559 24.3497 25.0036C23.5415 25.6512 22.536 26.0028 21.5004 25.9999Z"
              fill="currentColor" fill-opacity="0.2"/>
    </g>
    <g id="clip">
        <path d="M25.5456 15.3524L15.0728 26.1801C13.6364 27.6659 11.6883 28.5004 9.6571 28.5C7.62595 28.4996 5.67814 27.6644 4.24215 26.1782C2.80617 24.6919 1.99964 22.6763 2 20.5747C2.00036 18.4732 2.80757 16.4579 4.24407 14.9721L16.7715 2.0462C17.7292 1.05581 19.028 0.499629 20.382 0.5C21.0525 0.500184 21.7163 0.637 22.3357 0.902637C22.9551 1.16827 23.5178 1.55753 23.9918 2.04818C24.4657 2.53882 24.8416 3.12126 25.098 3.76222C25.3545 4.40318 25.4863 5.09012 25.4862 5.78382C25.486 6.47752 25.3537 7.16439 25.097 7.80521C24.8403 8.44603 24.4641 9.02826 23.9898 9.51865L23.9681 9.53978L11.7419 21.717C11.5969 21.8613 11.4259 21.9746 11.2386 22.0505C11.0513 22.1264 10.8514 22.1634 10.6503 22.1593C10.4492 22.1553 10.2508 22.1103 10.0665 22.0269C9.88221 21.9435 9.71558 21.8234 9.57614 21.6734C9.4367 21.5234 9.32718 21.3465 9.25383 21.1527C9.18048 20.9589 9.14474 20.7521 9.14866 20.544C9.15257 20.3359 9.19605 20.1307 9.27662 19.94C9.3572 19.7493 9.47329 19.5769 9.61826 19.4326L21.833 7.26859C22.2148 6.87111 22.4284 6.33298 22.4267 5.77258C22.425 5.21219 22.2083 4.67544 21.8241 4.2804C21.6339 4.0848 21.4083 3.92988 21.1602 3.82449C20.9121 3.7191 20.6464 3.66529 20.3782 3.66615C19.8366 3.66789 19.3178 3.89216 18.936 4.28965L6.40855 17.2116C5.54696 18.1034 5.06305 19.3128 5.06329 20.5738C5.06341 21.1981 5.18239 21.8163 5.41342 22.3931C5.64446 22.9699 5.98304 23.494 6.40982 23.9354C6.83661 24.3768 7.34324 24.7269 7.9008 24.9657C8.45835 25.2045 9.05591 25.3274 9.65936 25.3272C10.8781 25.327 12.0468 24.8258 12.9084 23.934L23.3811 13.1063C23.5235 12.9589 23.6927 12.842 23.8788 12.7622C24.0649 12.6825 24.2644 12.6414 24.4659 12.6414C24.6673 12.6414 24.8668 12.6825 25.053 12.7622C25.2391 12.842 25.4082 12.9589 25.5507 13.1063C25.6931 13.2537 25.8061 13.4287 25.8832 13.6213C25.9603 13.8139 26 14.0203 26 14.2287C26 14.4372 25.9603 14.6436 25.8832 14.8361C25.8061 15.0287 25.6931 15.2037 25.5507 15.3511L25.5456 15.3524Z"
              fill="currentColor"/>
        <path d="M25.5456 15.3524L15.0728 26.1801C13.6364 27.6659 11.6883 28.5004 9.6571 28.5C7.62595 28.4996 5.67814 27.6644 4.24215 26.1782C2.80617 24.6919 1.99964 22.6763 2 20.5747C2.00036 18.4732 2.80757 16.4579 4.24407 14.9721L16.7715 2.0462C17.7292 1.05581 19.028 0.499629 20.382 0.5C21.0525 0.500184 21.7163 0.637 22.3357 0.902637C22.9551 1.16827 23.5178 1.55753 23.9918 2.04818C24.4657 2.53882 24.8416 3.12126 25.098 3.76222C25.3545 4.40318 25.4863 5.09012 25.4862 5.78382C25.486 6.47752 25.3537 7.16439 25.097 7.80521C24.8403 8.44603 24.4641 9.02826 23.9898 9.51865L23.9681 9.53978L11.7419 21.717C11.5969 21.8613 11.4259 21.9746 11.2386 22.0505C11.0513 22.1264 10.8514 22.1634 10.6503 22.1593C10.4492 22.1553 10.2508 22.1103 10.0665 22.0269C9.88221 21.9435 9.71558 21.8234 9.57614 21.6734C9.4367 21.5234 9.32718 21.3465 9.25383 21.1527C9.18048 20.9589 9.14474 20.7521 9.14866 20.544C9.15257 20.3359 9.19605 20.1307 9.27662 19.94C9.3572 19.7493 9.47329 19.5769 9.61826 19.4326L21.833 7.26859C22.2148 6.87111 22.4284 6.33298 22.4267 5.77258C22.425 5.21219 22.2083 4.67544 21.8241 4.2804C21.6339 4.0848 21.4083 3.92988 21.1602 3.82449C20.9121 3.7191 20.6464 3.66529 20.3782 3.66615C19.8366 3.66789 19.3178 3.89216 18.936 4.28965L6.40855 17.2116C5.54696 18.1034 5.06305 19.3128 5.06329 20.5738C5.06341 21.1981 5.18239 21.8163 5.41342 22.3931C5.64446 22.9699 5.98304 23.494 6.40982 23.9354C6.83661 24.3768 7.34324 24.7269 7.9008 24.9657C8.45835 25.2045 9.05591 25.3274 9.65936 25.3272C10.8781 25.327 12.0468 24.8258 12.9084 23.934L23.3811 13.1063C23.5235 12.9589 23.6927 12.842 23.8788 12.7622C24.0649 12.6825 24.2644 12.6414 24.4659 12.6414C24.6673 12.6414 24.8668 12.6825 25.053 12.7622C25.2391 12.842 25.4082 12.9589 25.5507 13.1063C25.6931 13.2537 25.8061 13.4287 25.8832 13.6213C25.9603 13.8139 26 14.0203 26 14.2287C26 14.4372 25.9603 14.6436 25.8832 14.8361C25.8061 15.0287 25.6931 15.2037 25.5507 15.3511L25.5456 15.3524Z"
              fill="currentColor" fill-opacity="0.2"/>
    </g>
    <g id="microphone">
        <path d="M14.0035 0.5C12.2607 0.5 10.5894 1.23751 9.35705 2.55027C8.12474 3.86302 7.43244 5.64348 7.43244 7.5V13.1C7.43244 14.9565 8.12474 16.737 9.35705 18.0497C10.5894 19.3625 12.2607 20.1 14.0035 20.1C15.7462 20.1 17.4176 19.3625 18.6499 18.0497C19.8822 16.737 20.5745 14.9565 20.5745 13.1V7.5C20.5745 5.64348 19.8822 3.86302 18.6499 2.55027C17.4176 1.23751 15.7462 0.5 14.0035 0.5ZM14.0035 3.3C15.0491 3.3 16.0519 3.74247 16.7913 4.53013C17.5307 5.31778 17.9461 6.38609 17.9461 7.5V13.1C17.9461 14.2139 17.5307 15.2822 16.7913 16.0699C16.0519 16.8575 15.0491 17.3 14.0035 17.3C12.9578 17.3 11.955 16.8575 11.2156 16.0699C10.4762 15.2822 10.0609 14.2139 10.0609 13.1V7.5C10.0609 6.38609 10.4762 5.31778 11.2156 4.53013C11.955 3.74247 12.9578 3.3 14.0035 3.3ZM5.94739 18.014C6.76399 19.5152 7.94007 20.7585 9.35547 21.617C10.7709 22.4754 12.3748 22.9182 14.0035 22.9C15.6291 22.9029 17.227 22.452 18.6382 21.5923C20.0493 20.7326 21.2244 19.494 22.0464 18C22.1355 17.8393 22.2539 17.6992 22.3946 17.588C22.5353 17.4767 22.6955 17.3965 22.8657 17.3521C23.0359 17.3078 23.2127 17.3001 23.3857 17.3297C23.5587 17.3592 23.7245 17.4252 23.8731 17.524C24.1623 17.713 24.3716 18.0138 24.4573 18.3634C24.5431 18.7131 24.4986 19.0845 24.3331 19.4C23.3906 21.1113 22.0859 22.5645 20.523 23.6437C18.96 24.7228 17.1821 25.3982 15.3308 25.616V27.1C15.3308 27.4713 15.1924 27.8274 14.9459 28.0899C14.6994 28.3525 14.3652 28.5 14.0166 28.5C13.6681 28.5 13.3338 28.3525 13.0873 28.0899C12.8409 27.8274 12.7024 27.4713 12.7024 27.1V25.616C10.8436 25.4133 9.05624 24.7443 7.4869 23.6638C5.91755 22.5834 4.61084 21.1222 3.67381 19.4C3.58745 19.2394 3.53185 19.0621 3.51022 18.8784C3.48859 18.6948 3.50137 18.5084 3.54781 18.33C3.59425 18.1516 3.67345 17.9848 3.7808 17.8393C3.88815 17.6937 4.02152 17.5723 4.17321 17.482C4.47729 17.3006 4.83656 17.2552 5.17201 17.356C5.50119 17.4591 5.77947 17.6953 5.94739 18.014Z"
              fill="currentColor"/>
        <path d="M14.0035 0.5C12.2607 0.5 10.5894 1.23751 9.35705 2.55027C8.12474 3.86302 7.43244 5.64348 7.43244 7.5V13.1C7.43244 14.9565 8.12474 16.737 9.35705 18.0497C10.5894 19.3625 12.2607 20.1 14.0035 20.1C15.7462 20.1 17.4176 19.3625 18.6499 18.0497C19.8822 16.737 20.5745 14.9565 20.5745 13.1V7.5C20.5745 5.64348 19.8822 3.86302 18.6499 2.55027C17.4176 1.23751 15.7462 0.5 14.0035 0.5ZM14.0035 3.3C15.0491 3.3 16.0519 3.74247 16.7913 4.53013C17.5307 5.31778 17.9461 6.38609 17.9461 7.5V13.1C17.9461 14.2139 17.5307 15.2822 16.7913 16.0699C16.0519 16.8575 15.0491 17.3 14.0035 17.3C12.9578 17.3 11.955 16.8575 11.2156 16.0699C10.4762 15.2822 10.0609 14.2139 10.0609 13.1V7.5C10.0609 6.38609 10.4762 5.31778 11.2156 4.53013C11.955 3.74247 12.9578 3.3 14.0035 3.3ZM5.94739 18.014C6.76399 19.5152 7.94007 20.7585 9.35547 21.617C10.7709 22.4754 12.3748 22.9182 14.0035 22.9C15.6291 22.9029 17.227 22.452 18.6382 21.5923C20.0493 20.7326 21.2244 19.494 22.0464 18C22.1355 17.8393 22.2539 17.6992 22.3946 17.588C22.5353 17.4767 22.6955 17.3965 22.8657 17.3521C23.0359 17.3078 23.2127 17.3001 23.3857 17.3297C23.5587 17.3592 23.7245 17.4252 23.8731 17.524C24.1623 17.713 24.3716 18.0138 24.4573 18.3634C24.5431 18.7131 24.4986 19.0845 24.3331 19.4C23.3906 21.1113 22.0859 22.5645 20.523 23.6437C18.96 24.7228 17.1821 25.3982 15.3308 25.616V27.1C15.3308 27.4713 15.1924 27.8274 14.9459 28.0899C14.6994 28.3525 14.3652 28.5 14.0166 28.5C13.6681 28.5 13.3338 28.3525 13.0873 28.0899C12.8409 27.8274 12.7024 27.4713 12.7024 27.1V25.616C10.8436 25.4133 9.05624 24.7443 7.4869 23.6638C5.91755 22.5834 4.61084 21.1222 3.67381 19.4C3.58745 19.2394 3.53185 19.0621 3.51022 18.8784C3.48859 18.6948 3.50137 18.5084 3.54781 18.33C3.59425 18.1516 3.67345 17.9848 3.7808 17.8393C3.88815 17.6937 4.02152 17.5723 4.17321 17.482C4.47729 17.3006 4.83656 17.2552 5.17201 17.356C5.50119 17.4591 5.77947 17.6953 5.94739 18.014Z"
              fill="currentColor" fill-opacity="0.2"/>
    </g>
    <g id="sendMessage">
        <path d="M22.8595 11.8426L27.6347 16.7309C27.7502 16.8449 27.8421 16.9816 27.9049 17.1328C27.9676 17.284 28 17.4466 28 17.6109C28 17.7751 27.9676 17.9377 27.9049 18.0889C27.8421 18.2401 27.7502 18.3768 27.6347 18.4908C27.5233 18.609 27.3898 18.7031 27.2421 18.7674C27.0944 18.8316 26.9356 18.8648 26.7751 18.8648C26.6147 18.8648 26.4559 18.8316 26.3082 18.7674C26.1605 18.7031 26.027 18.609 25.9156 18.4908L23.1938 15.7044L23.1627 32.2779C23.1627 32.602 23.0369 32.9129 22.8131 33.142C22.5892 33.3712 22.2855 33.5 21.9689 33.5C21.6523 33.5 21.3487 33.3712 21.1248 33.142C20.9009 32.9129 20.7751 32.602 20.7751 32.2779L20.8062 15.7044L18.0844 18.4908C17.973 18.609 17.8395 18.7031 17.6918 18.7674C17.5441 18.8316 17.3853 18.8648 17.2249 18.8648C17.0644 18.8648 16.9056 18.8316 16.7579 18.7674C16.6102 18.7031 16.4767 18.609 16.3653 18.4908C16.2498 18.3768 16.1579 18.2401 16.0951 18.0889C16.0324 17.9377 16 17.7751 16 17.6109C16 17.4466 16.0324 17.284 16.0951 17.1328C16.1579 16.9816 16.2498 16.8449 16.3653 16.7309L21.1405 11.8426C21.2544 11.7301 21.3891 11.6418 21.5367 11.5831C21.6842 11.5243 21.8417 11.4962 22 11.5004C22.1583 11.4962 22.3158 11.5243 22.4633 11.5831C22.6109 11.6418 22.7456 11.7301 22.8595 11.8426Z"
              fill="currentColor"/>
    </g>
    <g id="answer">
        <path d="M23.8213 24.2958C23.6331 24.1083 23.3779 24.0029 23.1118 24.0029L16.5164 24.0029C15.7182 24.0029 14.9526 23.6868 14.3881 23.1242C13.8237 22.5616 13.5066 21.7986 13.5066 21.0029V20.0029C13.5066 19.2073 13.8237 18.4442 14.3881 17.8816C14.9526 17.319 15.7182 17.0029 16.5164 17.0029H22.0458L19.7609 19.2803C19.6638 19.3736 19.5865 19.4854 19.5338 19.6091C19.481 19.7329 19.4538 19.8659 19.4538 20.0003C19.4538 20.1347 19.481 20.2678 19.5338 20.3915C19.5865 20.5152 19.6638 20.627 19.7609 20.7203C19.8545 20.8171 19.9667 20.8941 20.0908 20.9467C20.2149 20.9993 20.3484 21.0264 20.4832 21.0264C20.6181 21.0264 20.7516 20.9993 20.8757 20.9467C20.9998 20.8941 21.112 20.8171 21.2056 20.7203L25.2188 16.7203C25.3111 16.6249 25.3835 16.5121 25.4318 16.3885C25.48 16.2648 25.5031 16.1329 25.4997 16.0003C25.5031 15.8677 25.48 15.7358 25.4318 15.6122C25.3835 15.4886 25.3111 15.3758 25.2188 15.2803L21.2056 11.2803C21.1098 11.1882 20.9967 11.1161 20.8726 11.068C20.7486 11.0199 20.6163 10.9969 20.4832 11.0003C20.3502 10.9969 20.2179 11.0199 20.0938 11.068C19.9698 11.1161 19.8566 11.1882 19.7609 11.2803C19.6638 11.3736 19.5865 11.4854 19.5338 11.6092C19.481 11.7329 19.4538 11.8659 19.4538 12.0003C19.4538 12.1347 19.481 12.2678 19.5338 12.3915C19.5865 12.5152 19.6638 12.627 19.7609 12.7203L22.0484 15.0003L16.5164 15.0029C15.186 15.0029 13.9101 15.5297 12.9693 16.4674C12.0285 17.4051 11.5 18.6768 11.5 20.0029V21.0029C11.5 22.329 12.0285 23.6007 12.9693 24.5384C13.9101 25.4761 15.186 26.0029 16.5164 26.0029H23.1118C23.3779 26.0029 23.6331 25.8976 23.8213 25.71C24.0094 25.5225 24.1151 25.2681 24.1151 25.0029C24.1151 24.7377 24.0094 24.4834 23.8213 24.2958Z"
              fill="currentColor"/>
        <path d="M23.8213 24.2958C23.6331 24.1083 23.3779 24.0029 23.1118 24.0029L16.5164 24.0029C15.7182 24.0029 14.9526 23.6868 14.3881 23.1242C13.8237 22.5616 13.5066 21.7986 13.5066 21.0029V20.0029C13.5066 19.2073 13.8237 18.4442 14.3881 17.8816C14.9526 17.319 15.7182 17.0029 16.5164 17.0029H22.0458L19.7609 19.2803C19.6638 19.3736 19.5865 19.4854 19.5338 19.6091C19.481 19.7329 19.4538 19.8659 19.4538 20.0003C19.4538 20.1347 19.481 20.2678 19.5338 20.3915C19.5865 20.5152 19.6638 20.627 19.7609 20.7203C19.8545 20.8171 19.9667 20.8941 20.0908 20.9467C20.2149 20.9993 20.3484 21.0264 20.4832 21.0264C20.6181 21.0264 20.7516 20.9993 20.8757 20.9467C20.9998 20.8941 21.112 20.8171 21.2056 20.7203L25.2188 16.7203C25.3111 16.6249 25.3835 16.5121 25.4318 16.3885C25.48 16.2648 25.5031 16.1329 25.4997 16.0003C25.5031 15.8677 25.48 15.7358 25.4318 15.6122C25.3835 15.4886 25.3111 15.3758 25.2188 15.2803L21.2056 11.2803C21.1098 11.1882 20.9967 11.1161 20.8726 11.068C20.7486 11.0199 20.6163 10.9969 20.4832 11.0003C20.3502 10.9969 20.2179 11.0199 20.0938 11.068C19.9698 11.1161 19.8566 11.1882 19.7609 11.2803C19.6638 11.3736 19.5865 11.4854 19.5338 11.6092C19.481 11.7329 19.4538 11.8659 19.4538 12.0003C19.4538 12.1347 19.481 12.2678 19.5338 12.3915C19.5865 12.5152 19.6638 12.627 19.7609 12.7203L22.0484 15.0003L16.5164 15.0029C15.186 15.0029 13.9101 15.5297 12.9693 16.4674C12.0285 17.4051 11.5 18.6768 11.5 20.0029V21.0029C11.5 22.329 12.0285 23.6007 12.9693 24.5384C13.9101 25.4761 15.186 26.0029 16.5164 26.0029H23.1118C23.3779 26.0029 23.6331 25.8976 23.8213 25.71C24.0094 25.5225 24.1151 25.2681 24.1151 25.0029C24.1151 24.7377 24.0094 24.4834 23.8213 24.2958Z"
              fill="currentColor" fill-opacity="0.2"/>
    </g>
    <g id="complain">
        <path d="M14 5C11.6131 5 9.32386 5.94823 7.63603 7.63606C5.9482 9.32389 5 11.6131 5 14C5 16.3869 5.9482 18.6761 7.63603 20.3639C9.32386 22.0518 11.6131 23 14 23C16.3869 23 18.6761 22.0518 20.364 20.3639C22.0518 18.6761 23 16.3869 23 14C23 11.6131 22.0518 9.32389 20.364 7.63606C18.6761 5.94823 16.3869 5 14 5ZM14 6.8C15.9096 6.8 17.7409 7.55856 19.0912 8.90883C20.4414 10.2591 21.2 12.0904 21.2 14C21.2 15.9096 20.4414 17.7409 19.0912 19.0912C17.7409 20.4414 15.9096 21.2 14 21.2C12.0904 21.2 10.2591 20.4414 8.90883 19.0912C7.55856 17.7409 6.8 15.9096 6.8 14C6.8 12.0904 7.55856 10.2591 8.90883 8.90883C10.2591 7.55856 12.0904 6.8 14 6.8ZM14 16.7C14.2387 16.7 14.4676 16.7948 14.6364 16.9636C14.8052 17.1324 14.9 17.3613 14.9 17.6C14.9 17.8387 14.8052 18.0676 14.6364 18.2364C14.4676 18.4052 14.2387 18.5 14 18.5C13.7613 18.5 13.5324 18.4052 13.3636 18.2364C13.1948 18.0676 13.1 17.8387 13.1 17.6C13.1 17.3613 13.1948 17.1324 13.3636 16.9636C13.5324 16.7948 13.7613 16.7 14 16.7ZM14.9 10.4V14.9C14.9 15.1387 14.8052 15.3676 14.6364 15.5364C14.4676 15.7052 14.2387 15.8 14 15.8C13.7613 15.8 13.5324 15.7052 13.3636 15.5364C13.1948 15.3676 13.1 15.1387 13.1 14.9V10.4C13.1 10.1613 13.1948 9.9324 13.3636 9.76362C13.5324 9.59483 13.7613 9.5 14 9.5C14.2387 9.5 14.4676 9.59483 14.6364 9.76362C14.8052 9.9324 14.9 10.1613 14.9 10.4Z"
              fill="currentColor"/>
    </g>
    <g id="delete">
        <path d="M13.1111 14.0319V18.0159C13.1111 18.2273 13.0175 18.4299 12.8508 18.5794C12.6841 18.7288 12.458 18.8128 12.2222 18.8128C11.9865 18.8128 11.7604 18.7288 11.5937 18.5794C11.427 18.4299 11.3333 18.2273 11.3333 18.0159V14.0319C11.3333 13.8206 11.427 13.6179 11.5937 13.4685C11.7604 13.319 11.9865 13.2351 12.2222 13.2351C12.458 13.2351 12.6841 13.319 12.8508 13.4685C13.0175 13.6179 13.1111 13.8206 13.1111 14.0319ZM15.7778 13.2351C15.542 13.2351 15.3159 13.319 15.1492 13.4685C14.9825 13.6179 14.8889 13.8206 14.8889 14.0319V18.0159C14.8889 18.2273 14.9825 18.4299 15.1492 18.5794C15.3159 18.7288 15.542 18.8128 15.7778 18.8128C16.0135 18.8128 16.2396 18.7288 16.4063 18.5794C16.573 18.4299 16.6667 18.2273 16.6667 18.0159V14.0319C16.6667 13.8206 16.573 13.6179 16.4063 13.4685C16.2396 13.319 16.0135 13.2351 15.7778 13.2351ZM22 9.19522V10.8446C22 11.056 21.9063 11.2586 21.7397 11.4081C21.573 11.5575 21.3469 11.6414 21.1111 11.6414H6.88889C6.65314 11.6414 6.42705 11.5575 6.26035 11.4081C6.09365 11.2586 6 11.056 6 10.8446V9.33067C5.99989 8.49358 6.36717 7.69009 7.02247 7.09372C7.67778 6.49735 8.56851 6.15598 9.50222 6.14342L18.4711 6C19.4003 6.00615 20.2899 6.33815 20.9494 6.92491C21.609 7.51167 21.9861 8.30657 22 9.13944V9.19522ZM9.55556 7.77692C9.08406 7.77692 8.63187 7.9448 8.29848 8.24366C7.96508 8.54252 7.77778 8.94789 7.77778 9.37055V10.0956H20.2222V9.2032C20.2224 8.7887 20.0425 8.39042 19.7205 8.0929C19.3986 7.79537 18.96 7.62201 18.4978 7.60958L9.55556 7.77692Z"
              fill="currentColor"/>
        <path d="M8.66667 13.2351C8.43092 13.2351 8.20483 13.319 8.03813 13.4685C7.87143 13.6179 7.77778 13.8206 7.77778 14.0319V18.8128C7.77778 19.6581 8.15238 20.4688 8.81917 21.0665C9.48597 21.6642 10.3903 22 11.3333 22H16.6667C17.5988 21.9854 18.4873 21.6431 19.1407 21.047C19.7941 20.4508 20.1601 19.6485 20.16 18.8128V14.0319C20.16 13.8206 20.0663 13.6179 19.8997 13.4685C19.733 13.319 19.5069 13.2351 19.2711 13.2351C19.0354 13.2351 18.8093 13.319 18.6426 13.4685C18.4759 13.6179 18.3822 13.8206 18.3822 14.0319V18.8128C18.3822 19.2354 18.1949 19.6407 17.8615 19.9396C17.5281 20.2385 17.0759 20.4064 16.6044 20.4064H11.2711C10.7996 20.4064 10.3474 20.2385 10.014 19.9396C9.68063 19.6407 9.49333 19.2354 9.49333 18.8128V14.0319C9.49333 13.8206 9.38898 13.5525 9.29521 13.4685C9.12851 13.319 8.90241 13.2351 8.66667 13.2351Z"
              fill="currentColor"/>

    </g>
</svg>