<svg xmlns="http://www.w3.org/2000/svg">
    <g id="filters">
        <path fill="currentColor"
              d="M20.2561 11.2497L26.85 11.2497C27.1882 11.2497 27.5125 11.118 27.7516 10.8836C27.9907 10.6492 28.125 10.3312 28.125 9.99972C28.125 9.6682 27.9907 9.35025 27.7516 9.11583C27.5125 8.8814 27.1882 8.74971 26.85 8.74971L20.2561 8.7497C19.9924 8.01865 19.504 7.38571 18.8582 6.93805C18.2124 6.49038 17.4409 6.25 16.65 6.25C15.8591 6.25 15.0876 6.49038 14.4418 6.93805C13.796 7.38571 13.3076 8.01865 13.0439 8.7497L8.15 8.7497C7.81185 8.7497 7.48755 8.8814 7.24844 9.11583C7.00933 9.35025 6.875 9.6682 6.875 9.99972C6.875 10.3312 7.00933 10.6492 7.24844 10.8836C7.48755 11.118 7.81185 11.2497 8.15 11.2497L13.0439 11.2497C13.3076 11.9808 13.796 12.6137 14.4418 13.0614C15.0876 13.5091 15.8591 13.7494 16.65 13.7494C17.4409 13.7494 18.2124 13.5091 18.8582 13.0614C19.504 12.6137 19.9924 11.9808 20.2561 11.2497ZM15.375 9.99972C15.375 9.75249 15.4498 9.51081 15.5899 9.30525C15.73 9.09969 15.9291 8.93947 16.1621 8.84486C16.3951 8.75025 16.6514 8.72549 16.8987 8.77372C17.1461 8.82196 17.3733 8.94101 17.5516 9.11583C17.7299 9.29064 17.8513 9.51338 17.9005 9.75586C17.9497 9.99834 17.9244 10.2497 17.8279 10.4781C17.7314 10.7065 17.568 10.9017 17.3584 11.0391C17.1487 11.1764 16.9022 11.2497 16.65 11.2497C16.3118 11.2497 15.9875 11.118 15.7484 10.8836C15.5093 10.6492 15.375 10.3312 15.375 9.99972ZM21.75 21.2499C22.5407 21.2488 23.3117 21.008 23.9573 20.5604C24.6029 20.1128 25.0915 19.4804 25.3561 18.7499L26.85 18.7499C27.1882 18.7499 27.5125 18.6182 27.7516 18.3837C27.9907 18.1493 28.125 17.8314 28.125 17.4998C28.125 17.1683 27.9907 16.8504 27.7516 16.6159C27.5125 16.3815 27.1882 16.2498 26.85 16.2498L25.3561 16.2498C25.0924 15.5188 24.604 14.8858 23.9582 14.4382C23.3124 13.9905 22.5409 13.7501 21.75 13.7501C20.9591 13.7501 20.1876 13.9905 19.5418 14.4382C18.896 14.8858 18.4076 15.5188 18.1439 16.2498L8.15 16.2498C7.81185 16.2498 7.48755 16.3815 7.24844 16.6159C7.00933 16.8504 6.875 17.1683 6.875 17.4998C6.875 17.8314 7.00933 18.1493 7.24844 18.3837C7.48755 18.6182 7.81185 18.7499 8.15 18.7499L18.1439 18.7499C18.4085 19.4804 18.8971 20.1128 19.5427 20.5604C20.1883 21.008 20.9593 21.2488 21.75 21.2499ZM20.475 17.4998C20.475 17.2526 20.5498 17.0109 20.6899 16.8054C20.83 16.5998 21.0291 16.4396 21.2621 16.345C21.4951 16.2504 21.7514 16.2256 21.9987 16.2738C22.2461 16.3221 22.4732 16.4411 22.6516 16.6159C22.8299 16.7908 22.9513 17.0135 23.0005 17.256C23.0497 17.4984 23.0244 17.7498 22.9279 17.9782C22.8314 18.2066 22.668 18.4018 22.4584 18.5392C22.2487 18.6765 22.0022 18.7499 21.75 18.7499C21.4118 18.7499 21.0875 18.6182 20.8484 18.3837C20.6093 18.1493 20.475 17.8314 20.475 17.4998ZM13.25 28.75C14.0407 28.7489 14.8117 28.5081 15.4573 28.0605C16.1029 27.6129 16.5915 26.9805 16.8561 26.25L26.85 26.25C27.1882 26.25 27.5125 26.1183 27.7516 25.8838C27.9907 25.6494 28.125 25.3315 28.125 24.9999C28.125 24.6684 27.9907 24.3505 27.7516 24.116C27.5125 23.8816 27.1882 23.7499 26.85 23.7499L16.8561 23.7499C16.5924 23.0189 16.104 22.3859 15.4582 21.9383C14.8124 21.4906 14.0409 21.2502 13.25 21.2502C12.4591 21.2502 11.6876 21.4906 11.0418 21.9383C10.396 22.3859 9.90759 23.0189 9.64387 23.7499L8.15 23.7499C7.81185 23.7499 7.48755 23.8816 7.24844 24.116C7.00933 24.3505 6.875 24.6684 6.875 24.9999C6.875 25.3315 7.00933 25.6494 7.24844 25.8838C7.48755 26.1183 7.81185 26.25 8.15 26.25L9.64387 26.25C9.90847 26.9805 10.3971 27.6129 11.0427 28.0605C11.6883 28.5081 12.4593 28.7489 13.25 28.75ZM11.975 24.9999C11.975 24.7527 12.0498 24.511 12.1899 24.3055C12.33 24.0999 12.5291 23.9397 12.7621 23.8451C12.9951 23.7505 13.2514 23.7257 13.4987 23.7739C13.7461 23.8222 13.9732 23.9412 14.1516 24.116C14.3299 24.2909 14.4513 24.5136 14.5005 24.7561C14.5497 24.9986 14.5244 25.2499 14.4279 25.4783C14.3314 25.7067 14.168 25.9019 13.9584 26.0393C13.7487 26.1766 13.5022 26.25 13.25 26.25C12.9119 26.25 12.5875 26.1183 12.3484 25.8838C12.1093 25.6494 11.975 25.3315 11.975 24.9999Z"
              fill-opacity="1.000000"/>
    </g>

    <g id="search">
        <path fill="currentColor"
              d="M15.7157 6.25C13.2052 6.25 10.7976 7.24859 9.02243 9.02612C7.24727 10.8036 6.25 13.2145 6.25 15.7283C6.25 18.2421 7.24727 20.6529 9.02243 22.4304C10.7976 24.208 13.2052 25.2066 15.7157 25.2066C17.8192 25.1956 19.8607 24.492 21.5253 23.2043L26.7196 28.4055C26.9413 28.6262 27.2412 28.75 27.5538 28.75C27.8663 28.75 28.1662 28.6262 28.3879 28.4055C28.5024 28.295 28.5935 28.1624 28.6557 28.0159C28.7179 27.8693 28.75 27.7117 28.75 27.5524C28.75 27.3932 28.7179 27.2355 28.6557 27.089C28.5935 26.9424 28.5024 26.8099 28.3879 26.6994L23.1818 21.5338C24.4669 19.871 25.1696 17.8308 25.1814 15.7283C25.1814 13.2145 24.1841 10.8036 22.409 9.02612C20.6338 7.24859 18.2262 6.25 15.7157 6.25ZM15.7157 8.61957C17.5985 8.61957 19.4043 9.36855 20.7357 10.7017C22.067 12.0348 22.815 13.8429 22.815 15.7283C22.815 17.6136 22.067 19.4217 20.7357 20.7549C19.4043 22.088 17.5985 22.837 15.7157 22.837C13.8329 22.837 12.0271 22.088 10.6958 20.7549C9.36438 19.4217 8.61643 17.6136 8.61643 15.7283C8.61643 13.8429 9.36438 12.0348 10.6958 10.7017C12.0271 9.36855 13.8329 8.61957 15.7157 8.61957Z"/>
    </g>

    <g id="avatar">
        <path fill="currentColor"
              d="M8 0.5C6.7568 0.5 5.56451 0.974116 4.68543 1.81803C3.80636 2.66194 3.3125 3.80653 3.3125 5C3.3125 6.19347 3.80636 7.33806 4.68543 8.18197C5.56451 9.02588 6.7568 9.5 8 9.5C9.2432 9.5 10.4355 9.02588 11.3146 8.18197C12.1936 7.33806 12.6875 6.19347 12.6875 5C12.6875 3.80653 12.1936 2.66194 11.3146 1.81803C10.4355 0.974116 9.2432 0.5 8 0.5ZM8 2.3C8.74592 2.3 9.46129 2.58445 9.98874 3.0908C10.5162 3.59714 10.8125 4.28392 10.8125 5C10.8125 5.71608 10.5162 6.40286 9.98874 6.9092C9.46129 7.41555 8.74592 7.7 8 7.7C7.25408 7.7 6.53871 7.41555 6.01126 6.9092C5.48381 6.40286 5.1875 5.71608 5.1875 5C5.1875 4.28392 5.48381 3.59714 6.01126 3.0908C6.53871 2.58445 7.25408 2.3 8 2.3ZM9.875 10.4C11.3668 10.4 12.7976 10.969 13.8525 11.9816C14.9074 12.9943 15.5 14.3678 15.5 15.8V17.6C15.5 17.8387 15.4012 18.0676 15.2254 18.2364C15.0496 18.4052 14.8111 18.5 14.5625 18.5C14.3139 18.5 14.0754 18.4052 13.8996 18.2364C13.7238 18.0676 13.625 17.8387 13.625 17.6V15.8C13.625 14.8452 13.2299 13.9295 12.5267 13.2544C11.8234 12.5793 10.8696 12.2 9.875 12.2H6.125C5.13044 12.2 4.17661 12.5793 3.47335 13.2544C2.77009 13.9295 2.375 14.8452 2.375 15.8V17.6C2.375 17.8387 2.27623 18.0676 2.10041 18.2364C1.9246 18.4052 1.68614 18.5 1.4375 18.5C1.18886 18.5 0.950402 18.4052 0.774587 18.2364C0.598771 18.0676 0.5 17.8387 0.5 17.6V15.8C0.5 14.3678 1.09264 12.9943 2.14753 11.9816C3.20242 10.969 4.63316 10.4 6.125 10.4H9.875Z"/>
    </g>

    <g id="home">
        <path stroke="currentColor" stroke-width="3" stroke-linecap="round" stroke-linejoin="round"
              d="M15 32.5109V23.544C15 22.0489 16 22.0488 17 22.0488L21 22.0489C22 22.0489 23 22.0489 23 23.5441V32.511C23 34.5037 24 35.5 26 35.5H34C35 35.5 36 34.5037 36 33.5073V18.5625C36 16.5698 34.6 15.175 33 13.5809C30.1667 10.758 23.9996 4.61423 22 2.62118C20.4999 1.12634 17.4999 1.1262 16 2.62118C14.0004 4.61423 7.83333 10.7578 5 13.5807C3.4 15.1748 2 16.5697 2 18.5624V33.5072C2 34.5035 3 35.4999 4 35.4999H12C14 35.4999 15 34.5035 15 32.5109Z"/>
    </g>
    <g id="candle">
        <path
                d="M17.6977 17.4127C17.229 17.2097 16.7235 17.099 16.2106 17.087L11.3325 17.0869V15.6864C12.6287 15.4883 13.8195 14.8569 14.6941 13.893C15.6695 12.8181 16.1739 11.4152 16.0993 9.9837C16.096 8.19228 15.4133 5.86678 14.3575 3.987C13.8264 3.04149 13.1869 2.18322 12.4661 1.5552C11.7473 0.928856 10.9095 0.5 9.99583 0.5C9.08216 0.5 8.24436 0.928856 7.52552 1.5552C6.80475 2.18322 6.16528 3.04149 5.6342 3.987C4.57836 5.86677 3.89563 8.19227 3.89234 9.98368C3.81775 11.4151 4.32215 12.8181 5.29755 13.893C6.17213 14.8569 7.36295 15.4883 8.65917 15.6864V17.0869L3.7931 17.0868L3.78591 17.0869C3.2752 17.094 2.77102 17.2001 2.30289 17.3989C1.83476 17.5977 1.41203 17.8853 1.05953 18.245C0.707034 18.6047 0.431869 19.0292 0.25029 19.4938C0.0697995 19.9555 -0.0145807 20.4476 0.0020582 20.9413V23.3628C-0.00493936 24.1318 0.225494 24.8851 0.663369 25.5254C1.03796 26.0732 1.54958 26.5167 2.14755 26.816V47.1995C2.14755 47.5452 2.289 47.8763 2.53995 48.12C2.79081 48.3636 3.13052 48.5 3.48421 48.5H16.5074C16.8611 48.5 17.2008 48.3636 17.4517 48.12C17.7027 47.8763 17.8441 47.5452 17.8441 47.1995V26.8574C18.4435 26.5591 18.9566 26.1161 19.3327 25.5684C19.7724 24.9279 20.0042 24.1738 19.9979 23.4037V20.9817C20.0146 20.4858 19.9303 19.9915 19.7501 19.5272C19.5688 19.0602 19.2939 18.6328 18.9416 18.2699C18.5893 17.907 18.1665 17.6157 17.6977 17.4127ZM6.56412 10.0349L6.56565 10.0158V9.99664C6.56565 8.5107 7.15622 6.74548 7.93564 5.34263C8.32358 4.64439 8.74568 4.05907 9.14148 3.65606C9.33943 3.45451 9.52044 3.3092 9.67669 3.21698C9.83607 3.12291 9.94073 3.10099 9.99583 3.10099C10.0509 3.10099 10.1556 3.12291 10.315 3.21698C10.4712 3.3092 10.6522 3.45451 10.8502 3.65606C11.246 4.05907 11.6681 4.64439 12.056 5.34263C12.8354 6.74548 13.426 8.5107 13.426 9.99664V10.0158L13.4275 10.0349C13.4875 10.7826 13.2448 11.5239 12.7503 12.1011C12.2625 12.6706 11.5674 13.0362 10.8092 13.1219L10.7799 13.1252L10.7512 13.1318C10.6136 13.1637 10.3537 13.1864 10.0472 13.1869C9.74653 13.1874 9.44861 13.1665 9.24461 13.1299L9.2261 13.1266L9.20739 13.1246C8.43954 13.0442 7.73452 12.6769 7.24131 12.1011C6.74686 11.5239 6.50414 10.7826 6.56412 10.0349ZM14.4377 27.6372C14.6291 27.4312 14.889 27.2982 15.1708 27.2604V45.899H4.82087V27.0966C5.48007 26.9015 6.07693 26.5388 6.54771 26.0426C6.95735 25.6108 7.25578 25.0946 7.42301 24.5362C7.50175 24.598 7.57288 24.6692 7.63452 24.7486C7.80645 24.9702 7.89411 25.2422 7.88316 25.5188L7.88278 25.5282V29.4696C7.88278 30.2754 8.21245 31.0477 8.79844 31.6168C9.38434 32.1858 10.1785 32.505 11.006 32.505C11.8335 32.505 12.6276 32.1858 13.2135 31.6168C13.7995 31.0477 14.1291 30.2754 14.1291 29.4696V28.4925L14.1285 28.4801C14.1125 28.1709 14.2234 27.8677 14.4377 27.6372ZM17.3666 20.9541L17.3245 23.4111L17.325 23.4249C17.3313 23.5805 17.3058 23.7358 17.2498 23.8819C17.1938 24.0279 17.1085 24.1619 16.9987 24.2761C16.8889 24.3902 16.7567 24.4822 16.6097 24.5465C16.4647 24.6101 16.3083 24.6454 16.1492 24.6507H15.2469L15.2335 24.6508C14.206 24.6776 13.231 25.0992 12.5226 25.8238C11.8156 26.547 11.4318 27.513 11.4558 28.5108V29.5021L11.4602 29.5343C11.4687 29.5965 11.4635 29.6597 11.4448 29.7197C11.426 29.7798 11.3943 29.8354 11.3515 29.8829C11.3086 29.9304 11.2557 29.9686 11.196 29.9949C11.1364 30.0211 11.0716 30.0348 11.006 30.0348C10.9403 30.0348 10.8755 30.0211 10.8159 29.9949C10.7563 29.9686 10.7033 29.9304 10.6605 29.8829C10.6176 29.8354 10.5859 29.7798 10.5672 29.7197C10.5485 29.6597 10.5432 29.5965 10.5517 29.5343L10.5561 29.5021V25.5437C10.5801 24.5459 10.1964 23.5799 9.48935 22.8567C8.78091 22.1321 7.80588 21.7105 6.77847 21.6837L6.65654 21.6835L6.64993 21.6835C6.41992 21.6865 6.1927 21.7334 5.98123 21.8217C5.76976 21.91 5.5781 22.0379 5.41726 22.1983C5.25642 22.3587 5.12957 22.5485 5.04406 22.7568C4.95855 22.9651 4.91611 23.1878 4.91921 23.4122L4.91951 23.4338L4.92176 23.4553C4.93762 23.6068 4.92059 23.7598 4.87174 23.9046C4.82289 24.0493 4.74325 24.1827 4.63784 24.296C4.53241 24.4093 4.40354 24.5 4.25944 24.5622C4.11534 24.6244 3.95931 24.6565 3.80144 24.6565C3.64358 24.6565 3.48755 24.6244 3.34345 24.5622C3.19935 24.5 3.07047 24.4093 2.96505 24.296C2.85963 24.1827 2.78 24.0493 2.73115 23.9046C2.6823 23.7598 2.66527 23.6068 2.68112 23.4553L2.68372 23.4305V20.9561L2.68247 20.9388C2.67143 20.7869 2.69216 20.6343 2.74348 20.4902C2.79479 20.3461 2.87566 20.2135 2.98134 20.1002C3.08703 19.987 3.21536 19.8956 3.35869 19.8316C3.50013 19.7685 3.65321 19.7333 3.80894 19.7284H16.1909C16.35 19.7336 16.5065 19.769 16.6515 19.8325C16.7984 19.8969 16.9306 19.9888 17.0405 20.103C17.1503 20.2171 17.2356 20.3511 17.2915 20.4972C17.3475 20.6432 17.3729 20.7985 17.3666 20.9541Z"
                fill="currentColor"/>
    </g>
    <g id="feelings">
        <path d="M5 28.1983L12.2192 24.6066C14.0239 23.7121 16.1897 23.8883 17.6335 24.6066L29.3646 29.0997C29.9662 29.3991 30.989 30.357 30.267 31.7937C29.8581 32.6074 29.4492 33.0525 29.0403 33.2958M17.6335 30.8958C20.6415 31.7937 26.8379 33.5896 27.5599 33.5896C28.0534 33.5896 28.5468 33.5896 29.0403 33.2958M11.3168 37.1813L24.8527 40.7729C25.7551 41.0723 28.1013 41.3117 30.267 39.875C32.4328 38.4383 40.1934 32.093 43.8029 29.0999C44.7053 28.3517 45.4273 27.1245 44.7053 26.4062C43.3091 25.0169 41.9982 24.6103 39.291 26.4062C39.291 26.4062 32.758 30.7 29.0403 33.2958"
              stroke="currentColor" stroke-width="3" stroke-linecap="round" stroke-linejoin="round"/>
        <path fill-rule="evenodd" clip-rule="evenodd"
              d="M23 14.099C23 10.0262 27.5731 7.09169 31.5245 10.4887C31.6841 10.6259 31.8427 10.7735 32 10.9317C32.1572 10.7735 32.3158 10.626 32.4755 10.4888C36.4269 7.09254 41 10.0271 41 14.0999C41 17.9394 38.0289 20.1543 35.5003 22.0392C35.239 22.2341 34.9823 22.4254 34.7342 22.6146C33.8 23.3291 32.9 24 32 24C31.1 24 30.2 23.3282 29.2658 22.6154C29.0159 22.4246 28.7573 22.2317 28.4939 22.0352C25.9672 20.1501 23 17.9363 23 14.099ZM33.2762 20.8224L33.2735 20.8244C32.7858 21.1974 32.4539 21.4423 32.1653 21.6056C32.0951 21.6454 32.0405 21.6725 32.0002 21.6907C31.9598 21.6724 31.9051 21.6452 31.8347 21.6054C31.5453 21.4417 31.213 21.1965 30.7243 20.8236C30.4285 20.5978 30.1391 20.3815 29.8571 20.1706C28.7433 19.3379 27.7425 18.5897 26.9018 17.6732C25.9289 16.6127 25.3564 15.5056 25.3564 14.099C25.3564 12.8338 26.0923 11.8573 26.9607 11.473C27.6805 11.1546 28.8798 11.0824 30.302 12.5134L31.9998 14.2218L33.6978 12.5136C35.1199 11.083 36.3192 11.1551 37.0392 11.4737C37.9077 11.8581 38.6436 12.8347 38.6436 14.0999C38.6436 15.5061 38.0713 16.6132 37.0985 17.6736C36.2564 18.5915 35.253 19.3411 34.1366 20.1751C33.8566 20.3842 33.5696 20.5987 33.2762 20.8224Z"
              fill="currentColor" stroke="currentColor" stroke-width="2.4"/>
    </g>
    <g id="burger">
        <path d="M24.2778 8.89922C24.6019 8.89922 24.9128 8.78337 25.142 8.57715C25.3712 8.37093 25.5 8.09123 25.5 7.7996C25.5 7.50796 25.3712 7.22826 25.142 7.02204C24.9128 6.81583 24.6019 6.69997 24.2778 6.69997L4.72223 6.69922C4.39807 6.69922 4.08719 6.81507 3.85798 7.02129C3.62877 7.22751 3.5 7.5072 3.5 7.79884C3.5 8.09048 3.62877 8.37017 3.85798 8.57639C4.08719 8.78261 4.39807 8.89846 4.72223 8.89846L24.2778 8.89922Z"
              fill="currentColor"/>
        <path d="M24.2778 15.0984C24.6019 15.0984 24.9128 14.9826 25.142 14.7764C25.3712 14.5701 25.5 14.2905 25.5 13.9988C25.5 13.7072 25.3712 13.4275 25.142 13.2213C24.9128 13.015 24.6019 12.8992 24.2778 12.8992L4.72223 12.8984C4.39807 12.8984 4.08719 13.0143 3.85798 13.2205C3.62877 13.4267 3.5 13.7064 3.5 13.9981C3.5 14.2897 3.62877 14.5694 3.85798 14.7756C4.08719 14.9818 4.39807 15.0977 4.72223 15.0977L24.2778 15.0984Z"
              fill="currentColor"/>
        <path d="M24.2778 21.2977C24.6019 21.2977 24.9128 21.1818 25.142 20.9756C25.3712 20.7694 25.5 20.4897 25.5 20.198C25.5 19.9064 25.3712 19.6267 25.142 19.4205C24.9128 19.2143 24.6019 19.0984 24.2778 19.0984L4.72223 19.0977C4.39807 19.0977 4.08719 19.2135 3.85798 19.4197C3.62877 19.6259 3.5 19.9056 3.5 20.1973C3.5 20.4889 3.62877 20.7686 3.85798 20.9748C4.08719 21.181 4.39807 21.2969 4.72223 21.2969L24.2778 21.2977Z"
              fill="currentColor"/>
    </g>

    <g id="like">
        <path d="M20.001 31.5C53.001 13.6484 33.001 -9.02717 20.001 6.89458C7.00104 -9.02717 -12.999 13.6484 20.001 31.5Z"
              stroke="currentColor" stroke-width="3" stroke-linecap="round" stroke-linejoin="round"/>
    </g>

    <g id="plus">
        <path d="M10.4 0.9V8.1H17.6C17.8387 8.1 18.0676 8.19483 18.2364 8.36362C18.4052 8.5324 18.5 8.7613 18.5 9C18.5 9.2387 18.4052 9.4676 18.2364 9.63638C18.0676 9.80517 17.8387 9.9 17.6 9.9H10.4V17.1C10.4 17.3387 10.3052 17.5676 10.1364 17.7364C9.96761 17.9052 9.7387 18 9.5 18C9.2613 18 9.03239 17.9052 8.8636 17.7364C8.69482 17.5676 8.6 17.3387 8.6 17.1V9.9H1.4C1.16131 9.9 0.932386 9.80517 0.763603 9.63638C0.59482 9.4676 0.5 9.2387 0.5 9C0.5 8.7613 0.59482 8.5324 0.763603 8.36362C0.932386 8.19483 1.16131 8.1 1.4 8.1H8.6V0.9C8.6 0.661305 8.69482 0.4324 8.8636 0.263617C9.03239 0.0948342 9.2613 0 9.5 0C9.7387 0 9.96761 0.0948342 10.1364 0.263617C10.3052 0.4324 10.4 0.661305 10.4 0.9Z"
              fill="currentColor"/>
    </g>

    <g id="plaques">
        <path d="M0 4.5C0 3.30653 0.474106 2.16193 1.31802 1.31802C2.16193 0.474106 3.30653 0 4.5 0H11.5C12.6935 0 13.8381 0.474106 14.682 1.31802C15.5259 2.16193 16 3.30653 16 4.5V11.5C16 12.6935 15.5259 13.8381 14.682 14.682C13.8381 15.5259 12.6935 16 11.5 16H4.5C3.30653 16 2.16193 15.5259 1.31802 14.682C0.474106 13.8381 0 12.6935 0 11.5V4.5ZM4.5 3C4.10218 3 3.72064 3.15804 3.43934 3.43934C3.15804 3.72064 3 4.10218 3 4.5V11.5C3 12.328 3.672 13 4.5 13H11.5C11.8978 13 12.2794 12.842 12.5607 12.5607C12.842 12.2794 13 11.8978 13 11.5V4.5C13 4.10218 12.842 3.72064 12.5607 3.43934C12.2794 3.15804 11.8978 3 11.5 3H4.5ZM6 26H10V30H6V26Z"
              fill="currentColor"/>
        <path d="M0 24.5C0 23.3065 0.474106 22.1619 1.31802 21.318C2.16193 20.4741 3.30653 20 4.5 20H11.5C12.6935 20 13.8381 20.4741 14.682 21.318C15.5259 22.1619 16 23.3065 16 24.5V31.5C16 32.6935 15.5259 33.8381 14.682 34.682C13.8381 35.5259 12.6935 36 11.5 36H4.5C3.30653 36 2.16193 35.5259 1.31802 34.682C0.474106 33.8381 0 32.6935 0 31.5V24.5ZM4.5 23C4.10218 23 3.72064 23.158 3.43934 23.4393C3.15804 23.7206 3 24.1022 3 24.5V31.5C3 32.328 3.672 33 4.5 33H11.5C11.8978 33 12.2794 32.842 12.5607 32.5607C12.842 32.2794 13 31.8978 13 31.5V24.5C13 24.1022 12.842 23.7206 12.5607 23.4393C12.2794 23.158 11.8978 23 11.5 23H4.5ZM30 6H26V10H30V6Z"
              fill="currentColor"/>
        <path d="M24.5005 0C23.307 0 22.1624 0.474106 21.3185 1.31802C20.4746 2.16193 20.0005 3.30653 20.0005 4.5V11.5C20.0005 12.6935 20.4746 13.8381 21.3185 14.682C22.1624 15.5259 23.307 16 24.5005 16H31.5005C32.694 16 33.8386 15.5259 34.6825 14.682C35.5264 13.8381 36.0005 12.6935 36.0005 11.5V4.5C36.0005 3.30653 35.5264 2.16193 34.6825 1.31802C33.8386 0.474106 32.694 0 31.5005 0H24.5005ZM23.0005 4.5C23.0005 4.10218 23.1585 3.72064 23.4398 3.43934C23.7211 3.15804 24.1027 3 24.5005 3H31.5005C31.8983 3 32.2798 3.15804 32.5611 3.43934C32.8425 3.72064 33.0005 4.10218 33.0005 4.5V11.5C33.0005 11.8978 32.8425 12.2794 32.5611 12.5607C32.2798 12.842 31.8983 13 31.5005 13H24.5005C24.1027 13 23.7211 12.842 23.4398 12.5607C23.1585 12.2794 23.0005 11.8978 23.0005 11.5V4.5ZM20.0005 20H25.5005V25.5H20.0005V20ZM30.5005 25.5H25.5005V30.5H20.0005V36H25.5005V30.5H30.5005V36H36.0005V30.5H30.5005V25.5ZM30.5005 25.5V20H36.0005V25.5H30.5005Z"
              fill="currentColor"/>
    </g>

    <g id="contactUs">
        <path d="M19.8958 0C8.9075 0 0 8.9075 0 19.8958C0 30.8842 8.9075 39.7917 19.8958 39.7917C30.8842 39.7917 39.7917 30.8842 39.7917 19.8958C39.7917 8.9075 30.8842 0 19.8958 0ZM19.8958 36.4758C10.7392 36.4758 3.31583 29.0525 3.31583 19.8958C3.31583 10.7392 10.7392 3.31583 19.8958 3.31583C29.0525 3.31583 36.4758 10.7392 36.4758 19.8958C36.4758 29.0525 29.0525 36.4758 19.8958 36.4758Z"
              fill="currentColor"/>
        <path d="M20.9129 13.4235C21.3896 13.4235 21.8271 13.2551 22.2212 12.9185C22.6121 12.5818 22.8521 12.1735 22.9379 11.6968C23.0196 11.2168 22.9179 10.8118 22.6212 10.4751C22.3262 10.1351 21.9396 9.9668 21.4612 9.9668C20.9812 9.9668 20.5446 10.1351 20.1537 10.4751C19.7587 10.811 19.5187 11.2168 19.4371 11.6968C19.3779 12.1743 19.4921 12.5818 19.7729 12.9185C20.0546 13.2551 20.4362 13.4235 20.9129 13.4235Z"
              fill="currentColor"/>
        <path d="M24.5807 25.2292C24.5365 25.2917 24.494 25.3459 24.4507 25.4092C24.1906 25.7392 23.2215 26.905 21.964 27.6025C21.9557 27.6059 21.9482 27.6092 21.944 27.6142C21.834 27.6725 21.7215 27.7167 21.6098 27.7684C21.2782 27.8875 20.9673 27.9175 20.8673 27.925C20.5848 27.8884 20.4315 27.6909 20.4315 27.3167C20.4315 27.0075 20.5223 26.3967 20.7057 25.4792L20.9165 24.5534L21.779 20.4134C21.919 19.7084 21.994 19.3167 22.0107 19.2392L22.199 18.2709C22.3098 17.6717 22.3665 17.2759 22.3665 17.0825C22.3665 16.7125 22.2748 16.4317 22.1273 16.2034C22.114 16.17 22.0965 16.1367 22.0723 16.1017C22.0507 16.075 22.0273 16.0517 22.004 16.0275C21.9782 15.9992 21.9657 15.975 21.9307 15.9459C21.5632 15.6459 21.2198 15.5592 20.9832 15.54L20.9873 15.5334C20.9873 15.5334 19.4315 15.4159 17.1265 16.935C17.0932 16.9567 17.0732 16.9725 17.0423 16.9934C16.4182 17.3884 15.919 17.7842 15.5732 18.1034C15.3082 18.33 15.104 18.5409 14.9523 18.7384L14.9457 18.7475L14.9465 18.7467C14.7498 19.0059 14.6465 19.2409 14.6465 19.4492C14.6465 19.6134 14.7798 19.7775 15.0432 19.9417C15.0432 19.9417 16.0332 18.6634 17.6973 17.8317C17.8223 17.7775 18.1423 17.645 18.424 17.5717C18.5548 17.5417 18.8032 17.5184 18.9615 17.6492C19.0748 17.7675 19.1498 17.9317 19.1498 18.1875C19.1498 18.42 19.1148 18.7025 19.044 19.04L18.8756 19.8375L18.6665 20.8342L17.8448 24.7742C17.4248 26.8092 17.214 28.0267 17.214 28.4234C17.214 29.3592 17.7265 29.8275 18.7498 29.8275C19.214 29.8275 19.6907 29.7434 20.1798 29.5934C20.1832 29.5934 20.1848 29.595 20.1882 29.5967C20.2215 29.585 20.2523 29.5725 20.2848 29.5609C20.3657 29.535 20.4473 29.5042 20.5282 29.4734C22.8373 28.6142 24.3573 26.8834 24.8165 26.3034C24.8573 26.2542 24.8923 26.2084 24.9248 26.1642C24.9507 26.1284 24.9673 26.1042 24.9673 26.1042H24.9657C25.0823 25.9325 25.1465 25.79 25.1465 25.6834C25.1448 25.5342 24.9523 25.385 24.5807 25.2292Z"
              fill="currentColor"/>
    </g>

    <g id="arrow_back">
        <path id="Vector"
              d="M13.83 19C13.6806 19.0005 13.533 18.9675 13.398 18.9035C13.263 18.8395 13.1441 18.746 13.05 18.63L8.22 12.63C8.07291 12.4511 7.99251 12.2266 7.99251 11.995C7.99251 11.7634 8.07291 11.5389 8.22 11.36L13.22 5.36C13.3897 5.15578 13.6336 5.02736 13.8981 5.00298C14.1625 4.97861 14.4258 5.06026 14.63 5.23C14.8342 5.39973 14.9626 5.64365 14.987 5.90808C15.0114 6.1725 14.9297 6.43579 14.76 6.64L10.29 12L14.61 17.36C14.7323 17.5068 14.81 17.6855 14.8338 17.8751C14.8577 18.0646 14.8268 18.257 14.7447 18.4296C14.6627 18.6021 14.5329 18.7475 14.3708 18.8486C14.2087 18.9497 14.021 19.0022 13.83 19Z"
              fill="currentColor" fill-opacity="1.000000" fill-rule="nonzero"/>
    </g>

    <g id="eye_outline">
        <path fill="currentColor" id="Vector"
              d="M21.87 11.5C21.23 10.39 17.71 4.81999 11.73 5C6.20001 5.14 3.00001 10 2.13001 11.5C2.04224 11.652 1.99603 11.8245 1.99603 12C1.99603 12.1755 2.04224 12.348 2.13001 12.5C2.76001 13.59 6.13001 19 12.02 19L12.27 19C17.8 18.86 21.01 14 21.87 12.5C21.9578 12.348 22.004 12.1755 22.004 12C22.004 11.8245 21.9578 11.652 21.87 11.5ZM12.22 17C7.91001 17.1 5.10001 13.41 4.22001 12C5.22001 10.39 7.83001 7.09999 11.83 7C16.12 6.89 18.94 10.59 19.83 12C18.8 13.61 16.22 16.9 12.22 17Z"
              fill-opacity="1.000000" fill-rule="nonzero"/>
        <path fill="currentColor" id="Vector"
              d="M12 8.5C11.3078 8.5 10.6311 8.70528 10.0555 9.08986C9.47993 9.47444 9.03133 10.0211 8.76642 10.6606C8.50152 11.3002 8.43221 12.0039 8.56725 12.6828C8.7023 13.3618 9.03564 13.9854 9.52513 14.4749C10.0146 14.9644 10.6383 15.2977 11.3172 15.4328C11.9961 15.5678 12.6999 15.4985 13.3394 15.2336C13.9789 14.9687 14.5256 14.5201 14.9101 13.9445C15.2947 13.3689 15.5 12.6922 15.5 12C15.5 11.0717 15.1313 10.1815 14.4749 9.52513C13.8185 8.86874 12.9283 8.5 12 8.5ZM12 13.5C11.7033 13.5 11.4133 13.412 11.1666 13.2472C10.92 13.0824 10.7277 12.8481 10.6142 12.574C10.5007 12.2999 10.4709 11.9983 10.5288 11.7074C10.5867 11.4164 10.7296 11.1491 10.9393 10.9393C11.1491 10.7296 11.4164 10.5867 11.7074 10.5288C11.9983 10.4709 12.2999 10.5007 12.574 10.6142C12.8481 10.7277 13.0824 10.92 13.2472 11.1666C13.412 11.4133 13.5 11.7033 13.5 12C13.5 12.3978 13.342 12.7794 13.0607 13.0607C12.7794 13.342 12.3978 13.5 12 13.5Z"
              fill-opacity="1.000000" fill-rule="nonzero"/>
    </g>
    <g id="eye_off_outline">
        <path fill="currentColor" id="Vector"
              d="M4.71 3.29001C4.61676 3.19676 4.50607 3.1228 4.38425 3.07234C4.26243 3.02188 4.13186 2.99591 4 2.99591C3.86814 2.99591 3.73758 3.02188 3.61575 3.07234C3.49393 3.1228 3.38324 3.19676 3.29 3.29001C3.1017 3.4783 2.99591 3.7337 2.99591 4C2.99591 4.2663 3.1017 4.5217 3.29 4.71001L8.92 10.34C8.5638 11.0026 8.43059 11.7624 8.54009 12.5067C8.64959 13.2509 8.99599 13.9401 9.52794 14.4721C10.0599 15.004 10.7491 15.3504 11.4934 15.4599C12.2376 15.5694 12.9974 15.4362 13.66 15.08L19.29 20.71C19.383 20.8037 19.4936 20.8781 19.6154 20.9289C19.7373 20.9797 19.868 21.0058 20 21.0058C20.132 21.0058 20.2627 20.9797 20.3846 20.9289C20.5064 20.8781 20.617 20.8037 20.71 20.71C20.8037 20.617 20.8781 20.5064 20.9289 20.3846C20.9797 20.2627 21.0058 20.132 21.0058 20C21.0058 19.868 20.9797 19.7373 20.9289 19.6154C20.8781 19.4936 20.8037 19.383 20.71 19.29L4.71 3.29001ZM12 13.5C11.6022 13.5 11.2206 13.342 10.9393 13.0607C10.658 12.7794 10.5 12.3978 10.5 12L10.5 11.93L12.06 13.49L12 13.5Z"
              fill-opacity="1.000000" fill-rule="nonzero"/>
        <path fill="currentColor" id="Vector"
              d="M12.22 17C7.92001 17.1 5.10001 13.41 4.22001 12C4.84648 11.0007 5.59937 10.0865 6.46001 9.28L5.00001 7.87C3.87133 8.93347 2.90442 10.1564 2.13001 11.5C2.04224 11.652 1.99603 11.8245 1.99603 12C1.99603 12.1755 2.04224 12.348 2.13001 12.5C2.76001 13.59 6.13001 19 12.02 19L12.27 19C13.3776 18.9671 14.4708 18.7404 15.5 18.33L13.92 16.75C13.3644 16.8962 12.7942 16.98 12.22 17Z"
              fill-opacity="1.000000" fill-rule="nonzero"/>
        <path fill="currentColor" id="Vector"
              d="M21.87 11.5C21.23 10.39 17.7 4.81999 11.73 5C10.6225 5.03285 9.52924 5.25961 8.5 5.67L10.08 7.25C10.6356 7.10382 11.2058 7.01997 11.78 7C16.07 6.89 18.89 10.59 19.78 12C19.1381 13.0023 18.3682 13.9167 17.49 14.72L19 16.13C20.1428 15.0693 21.1234 13.8462 21.91 12.5C21.9918 12.3445 22.0311 12.1702 22.0241 11.9946C22.0171 11.8191 21.9639 11.6485 21.87 11.5Z"
              fill-opacity="1.000000" fill-rule="nonzero"/>
    </g>
    <g id="close">
        <path id="Vector"
              d="M13.41 12L17.71 7.71C17.8983 7.5217 18.0041 7.2663 18.0041 7C18.0041 6.7337 17.8983 6.47831 17.71 6.29C17.5217 6.1017 17.2663 5.99591 17 5.99591C16.7337 5.99591 16.4783 6.1017 16.29 6.29L12 10.59L7.71 6.29C7.5217 6.1017 7.2663 5.99591 7 5.99591C6.7337 5.99591 6.4783 6.1017 6.29 6.29C6.1017 6.47831 5.99591 6.7337 5.99591 7C5.99591 7.2663 6.1017 7.5217 6.29 7.71L10.59 12L6.29 16.29C6.19627 16.383 6.12188 16.4936 6.07111 16.6154C6.02034 16.7373 5.9942 16.868 5.9942 17C5.9942 17.132 6.02034 17.2627 6.07111 17.3846C6.12188 17.5064 6.19627 17.617 6.29 17.71C6.38296 17.8037 6.49356 17.8781 6.61543 17.9289C6.73728 17.9797 6.86799 18.0058 7 18.0058C7.13201 18.0058 7.26272 17.9797 7.38457 17.9289C7.50644 17.8781 7.61704 17.8037 7.71 17.71L12 13.41L16.29 17.71C16.383 17.8037 16.4936 17.8781 16.6154 17.9289C16.7373 17.9797 16.868 18.0058 17 18.0058C17.132 18.0058 17.2627 17.9797 17.3846 17.9289C17.5064 17.8781 17.617 17.8037 17.71 17.71C17.8037 17.617 17.8781 17.5064 17.9289 17.3846C17.9797 17.2627 18.0058 17.132 18.0058 17C18.0058 16.868 17.9797 16.7373 17.9289 16.6154C17.8781 16.4936 17.8037 16.383 17.71 16.29L13.41 12Z"
              fill="currentColor" fill-opacity="1.000000" fill-rule="nonzero"/>
    </g>
</svg>